<svg xmlns="http://www.w3.org/2000/svg" xmlns:xlink="http://www.w3.org/1999/xlink" contentStyleType="text/css" height="339px" preserveAspectRatio="none" style="width:445px;height:339px;background:#FFFFFF;" version="1.1" viewBox="0 0 445 339" width="445px" zoomAndPan="magnify"><defs/><g><!--class nz.ac.wgtn.swen225.lc.domain.GameBoard--><a href="GameBoard.html" target="_top" title="GameBoard.html" xlink:actuate="onRequest" xlink:href="GameBoard.html" xlink:show="new" xlink:title="GameBoard.html" xlink:type="simple"><g id="elem_nz.ac.wgtn.swen225.lc.domain.GameBoard"><rect codeLine="7" fill="#F1F1F1" height="301.5898" id="nz.ac.wgtn.swen225.lc.domain.GameBoard" rx="2.5" ry="2.5" style="stroke:#181818;stroke-width:0.5;" width="432.7998" x="6" y="12"/><ellipse cx="143.0278" cy="31.1328" fill="#ADD1B2" rx="11" ry="11" style="stroke:#181818;stroke-width:1.0;"/><path d="M145.501,37.2759 Q144.9199,37.5747 144.2808,37.7241 Q143.6416,37.8735 142.936,37.8735 Q140.4292,37.8735 139.1094,36.2217 Q137.7896,34.5698 137.7896,31.4487 Q137.7896,28.3193 139.1094,26.6675 Q140.4292,25.0156 142.936,25.0156 Q143.6416,25.0156 144.2891,25.165 Q144.9365,25.3145 145.501,25.6133 L145.501,28.3359 Q144.8701,27.7549 144.2766,27.4851 Q143.6831,27.2153 143.0522,27.2153 Q141.7075,27.2153 141.0227,28.282 Q140.3379,29.3486 140.3379,31.4487 Q140.3379,33.5405 141.0227,34.6072 Q141.7075,35.6738 143.0522,35.6738 Q143.6831,35.6738 144.2766,35.4041 Q144.8701,35.1343 145.501,34.5532 Z " fill="#000000"/><text fill="#000000" font-family="sans-serif" font-size="14" lengthAdjust="spacing" textLength="77.6426" x="199.8286" y="30.5352">GameBoard</text><text fill="#000000" font-family="sans-serif" font-size="10" lengthAdjust="spacing" textLength="150.2441" x="163.5278" y="43.1563">nz.ac.wgtn.swen225.lc.domain</text><line style="stroke:#181818;stroke-width:0.5;" x1="7" x2="437.7998" y1="50.2656" y2="50.2656"/><ellipse cx="17" cy="64.0098" fill="none" rx="3" ry="3" style="stroke:#038048;stroke-width:1.0;"/><text fill="#000000" font-family="sans-serif" font-size="14" lengthAdjust="spacing" text-decoration="underline" textLength="153.9111" x="26" y="67.8008">domainLogger: Logger</text><line style="stroke:#181818;stroke-width:0.5;" x1="7" x2="437.7998" y1="74.7539" y2="74.7539"/><ellipse cx="17" cy="88.498" fill="#84BE84" rx="3" ry="3" style="stroke:#038048;stroke-width:1.0;"/><text fill="#000000" font-family="sans-serif" font-size="14" lengthAdjust="spacing" textLength="211.5654" x="26" y="92.2891">GameBoard(GameBoardBuilder)</text><ellipse cx="17" cy="104.9863" fill="#84BE84" rx="3" ry="3" style="stroke:#038048;stroke-width:1.0;"/><text fill="#000000" font-family="sans-serif" font-size="14" lengthAdjust="spacing" textLength="149.9463" x="26" y="108.7773">action(Direction): void</text><ellipse cx="17" cy="121.4746" fill="#84BE84" rx="3" ry="3" style="stroke:#038048;stroke-width:1.0;"/><text fill="#000000" font-family="sans-serif" font-size="14" lengthAdjust="spacing" textLength="96.4619" x="26" y="125.2656">getWidth(): int</text><ellipse cx="17" cy="137.9629" fill="#84BE84" rx="3" ry="3" style="stroke:#038048;stroke-width:1.0;"/><text fill="#000000" font-family="sans-serif" font-size="14" lengthAdjust="spacing" textLength="102.4912" x="26" y="141.7539">getHeight(): int</text><ellipse cx="17" cy="154.4512" fill="#84BE84" rx="3" ry="3" style="stroke:#038048;stroke-width:1.0;"/><text fill="#000000" font-family="sans-serif" font-size="14" lengthAdjust="spacing" textLength="141.8662" x="26" y="158.2422">activateLasers(): void</text><ellipse cx="17" cy="170.9395" fill="#84BE84" rx="3" ry="3" style="stroke:#038048;stroke-width:1.0;"/><text fill="#000000" font-family="sans-serif" font-size="14" lengthAdjust="spacing" textLength="248.083" x="26" y="174.7305">getBoard(): List&lt;List&lt;Tile&lt;Item&gt;&gt;&gt;</text><ellipse cx="17" cy="187.4277" fill="#84BE84" rx="3" ry="3" style="stroke:#038048;stroke-width:1.0;"/><text fill="#000000" font-family="sans-serif" font-size="14" lengthAdjust="spacing" textLength="227.1104" x="26" y="191.2188">itemOnTile(Location): Tile&lt;Item&gt;</text><ellipse cx="17" cy="203.916" fill="#84BE84" rx="3" ry="3" style="stroke:#038048;stroke-width:1.0;"/><text fill="#000000" font-family="sans-serif" font-size="14" lengthAdjust="spacing" textLength="162.9072" x="26" y="207.707">configureButtons(): void</text><ellipse cx="17" cy="220.4043" fill="#84BE84" rx="3" ry="3" style="stroke:#038048;stroke-width:1.0;"/><text fill="#000000" font-family="sans-serif" font-size="14" lengthAdjust="spacing" textLength="281.4014" x="26" y="224.1953">findBoxAtLocation(Location): MovableBox</text><ellipse cx="17" cy="236.8926" fill="#84BE84" rx="3" ry="3" style="stroke:#038048;stroke-width:1.0;"/><text fill="#000000" font-family="sans-serif" font-size="14" lengthAdjust="spacing" textLength="143.5273" x="26" y="240.6836">copyOf(): GameBoard</text><ellipse cx="17" cy="253.3809" fill="#84BE84" rx="3" ry="3" style="stroke:#038048;stroke-width:1.0;"/><text fill="#000000" font-family="sans-serif" font-size="14" lengthAdjust="spacing" textLength="92.0186" x="26" y="257.1719">keysLeft(): int</text><ellipse cx="17" cy="269.8691" fill="#84BE84" rx="3" ry="3" style="stroke:#038048;stroke-width:1.0;"/><text fill="#000000" font-family="sans-serif" font-size="14" lengthAdjust="spacing" textLength="184.2559" x="26" y="273.6602">getGameState(): GameState</text><ellipse cx="17" cy="286.3574" fill="#84BE84" rx="3" ry="3" style="stroke:#038048;stroke-width:1.0;"/><text fill="#000000" font-family="sans-serif" font-size="14" lengthAdjust="spacing" text-decoration="underline" textLength="406.7998" x="26" y="290.1484">unsubscribeGameState(T extends GameStateObserver): void</text><ellipse cx="17" cy="302.8457" fill="#84BE84" rx="3" ry="3" style="stroke:#038048;stroke-width:1.0;"/><text fill="#000000" font-family="sans-serif" font-size="14" lengthAdjust="spacing" textLength="153.9658" x="26" y="306.6367">notifyObservers(): void</text></g></a><text fill="#888888" font-family="sans-serif" font-size="10" lengthAdjust="spacing" textLength="3.1641" x="217.418" y="317.668">&#160;</text><text fill="#888888" font-family="sans-serif" font-size="10" lengthAdjust="spacing" textLength="236.626" x="100.687" y="329.4453">UMLDoclet 2.2.1-SNAPSHOT, PlantUML 1.2024.7</text><!--SRC=[VPF1Qjj048RlUOffe22JLZIclHWZY0aq1QKEsAM798VnQYGjNSsAtP5Z9UJTkv9ZAKbDTT2Evl_dq-oi103meNPOL0W6Mzi8-8e46KzEWWIU11WhyZKgMb6D3iKwOClKwwNE2AYgfOLSaydy-so0bJQa-xmow3sSphr-fDdvr-Hx82yikkoENt9V4dwCKSKFXN3i7uYdqs-nKN5cAzHy2kZXVuPu8CBjxH37fLJc_XwU-YQwwyaBYbRFSBQlIsrHa9l1VXriPmCY6g95eqr6RZAQK8cs75rgHtqqcS7Mwcmq52I_TIPb51JDyaQu8bsKye_ICRSebA8dvwDZo7rVGKcrbtb_Msj3ynz2LP8aerU7n98xBKgjmfSMH-_eL9PpNJIE5es8vIFlpJLd2xkxa0FfDVBQRd5ZmfXshv5rkymxq331KVn3hKyfbsE3wUohS4fqgEqVZfnWmxxPUENqXiQQDT1EY3C_bYutOPJRS7BlzyHMTDuUvBURVjv_jyH23d9hk-MEVrsdbrQPy6zCusby_ddry-9cTRLSVu8RWon1XeyTgflFv2y0]--></g></svg>