<svg xmlns="http://www.w3.org/2000/svg" xmlns:xlink="http://www.w3.org/1999/xlink" contentStyleType="text/css" height="339px" preserveAspectRatio="none" style="width:841px;height:339px;background:#FFFFFF;" version="1.1" viewBox="0 0 841 339" width="841px" zoomAndPan="magnify"><defs/><g><!--class nz.ac.wgtn.swen225.lc.domain.GameState--><a href="GameState.html" target="_top" title="GameState.html" xlink:actuate="onRequest" xlink:href="GameState.html" xlink:show="new" xlink:title="GameState.html" xlink:type="simple"><g id="elem_nz.ac.wgtn.swen225.lc.domain.GameState"><rect codeLine="7" fill="#F1F1F1" height="227.6367" id="nz.ac.wgtn.swen225.lc.domain.GameState" rx="2.5" ry="2.5" style="stroke:#181818;stroke-width:0.5;" width="828.1973" x="6" y="86"/><ellipse cx="340.7266" cy="105.1328" fill="#ADD1B2" rx="11" ry="11" style="stroke:#181818;stroke-width:1.0;"/><path d="M343.1997,111.2759 Q342.6187,111.5747 341.9795,111.7241 Q341.3403,111.8735 340.6348,111.8735 Q338.1279,111.8735 336.8081,110.2217 Q335.4883,108.5698 335.4883,105.4487 Q335.4883,102.3193 336.8081,100.6675 Q338.1279,99.0156 340.6348,99.0156 Q341.3403,99.0156 341.9878,99.165 Q342.6353,99.3145 343.1997,99.6133 L343.1997,102.3359 Q342.5688,101.7549 341.9753,101.4851 Q341.3818,101.2153 340.751,101.2153 Q339.4063,101.2153 338.7214,102.282 Q338.0366,103.3486 338.0366,105.4487 Q338.0366,107.5405 338.7214,108.6072 Q339.4063,109.6738 340.751,109.6738 Q341.3818,109.6738 341.9753,109.4041 Q342.5688,109.1343 343.1997,108.5532 Z " fill="#000000"/><text fill="#000000" font-family="sans-serif" font-size="14" lengthAdjust="spacing" textLength="72.2627" x="400.2173" y="104.5352">GameState</text><text fill="#000000" font-family="sans-serif" font-size="10" lengthAdjust="spacing" textLength="150.2441" x="361.2266" y="117.1563">nz.ac.wgtn.swen225.lc.domain</text><line style="stroke:#181818;stroke-width:0.5;" x1="7" x2="833.1973" y1="124.2656" y2="124.2656"/><ellipse cx="17" cy="138.0098" fill="#84BE84" rx="3" ry="3" style="stroke:#038048;stroke-width:1.0;"/><text fill="#000000" font-family="sans-serif" font-size="14" lengthAdjust="spacing" textLength="802.1973" x="26" y="141.8008">GameState(List&lt;List&lt;Tile&lt;Item&gt;&gt;&gt;, Player, List&lt;Robot&gt;, List&lt;MovableBox&gt;, List&lt;LaserSource&gt;, int, int, int, int, int)</text><ellipse cx="17" cy="154.498" fill="#84BE84" rx="3" ry="3" style="stroke:#038048;stroke-width:1.0;"/><text fill="#000000" font-family="sans-serif" font-size="14" lengthAdjust="spacing" textLength="227.0762" x="26" y="158.2891">board(): List&lt;List&lt;Tile&lt;Item&gt;&gt;&gt;</text><ellipse cx="17" cy="170.9863" fill="#84BE84" rx="3" ry="3" style="stroke:#038048;stroke-width:1.0;"/><text fill="#000000" font-family="sans-serif" font-size="14" lengthAdjust="spacing" textLength="99.7568" x="26" y="174.7773">player(): Player</text><ellipse cx="17" cy="187.4746" fill="#84BE84" rx="3" ry="3" style="stroke:#038048;stroke-width:1.0;"/><text fill="#000000" font-family="sans-serif" font-size="14" lengthAdjust="spacing" textLength="148.3193" x="26" y="191.2656">robots(): List&lt;Robot&gt;</text><ellipse cx="17" cy="203.9629" fill="#84BE84" rx="3" ry="3" style="stroke:#038048;stroke-width:1.0;"/><text fill="#000000" font-family="sans-serif" font-size="14" lengthAdjust="spacing" textLength="186.5732" x="26" y="207.7539">boxes(): List&lt;MovableBox&gt;</text><ellipse cx="17" cy="220.4512" fill="#84BE84" rx="3" ry="3" style="stroke:#038048;stroke-width:1.0;"/><text fill="#000000" font-family="sans-serif" font-size="14" lengthAdjust="spacing" textLength="230.6035" x="26" y="224.2422">laserSources(): List&lt;LaserSource&gt;</text><ellipse cx="17" cy="236.9395" fill="#84BE84" rx="3" ry="3" style="stroke:#038048;stroke-width:1.0;"/><text fill="#000000" font-family="sans-serif" font-size="14" lengthAdjust="spacing" textLength="91.7383" x="26" y="240.7305">timeLeft(): int</text><ellipse cx="17" cy="253.4277" fill="#84BE84" rx="3" ry="3" style="stroke:#038048;stroke-width:1.0;"/><text fill="#000000" font-family="sans-serif" font-size="14" lengthAdjust="spacing" textLength="66.876" x="26" y="257.2188">level(): int</text><ellipse cx="17" cy="269.916" fill="#84BE84" rx="3" ry="3" style="stroke:#038048;stroke-width:1.0;"/><text fill="#000000" font-family="sans-serif" font-size="14" lengthAdjust="spacing" textLength="73.5068" x="26" y="273.707">width(): int</text><ellipse cx="17" cy="286.4043" fill="#84BE84" rx="3" ry="3" style="stroke:#038048;stroke-width:1.0;"/><text fill="#000000" font-family="sans-serif" font-size="14" lengthAdjust="spacing" textLength="79.126" x="26" y="290.1953">height(): int</text><ellipse cx="17" cy="302.8926" fill="#84BE84" rx="3" ry="3" style="stroke:#038048;stroke-width:1.0;"/><text fill="#000000" font-family="sans-serif" font-size="14" lengthAdjust="spacing" textLength="126.2529" x="26" y="306.6836">totalTreasure(): int</text></g></a><!--class java.lang.Record--><g id="elem_java.lang.Record"><rect codeLine="21" fill="#F1F1F1" height="38.2656" id="java.lang.Record" rx="2.5" ry="2.5" style="stroke:#181818;stroke-width:0.5;" width="78.9629" x="380.5" y="12"/><ellipse cx="395.5" cy="31.1328" fill="#A9DCDF" rx="11" ry="11" style="stroke:#181818;stroke-width:1.0;"/><path d="M395.3633,26.481 L394.2095,31.5527 L396.5254,31.5527 Z M393.8691,24.2397 L396.8657,24.2397 L400.2109,36.6328 L397.7622,36.6328 L396.9985,33.5698 L393.7197,33.5698 L392.9727,36.6328 L390.5239,36.6328 Z " fill="#000000"/><text fill="#000000" font-family="sans-serif" font-size="14" font-style="italic" lengthAdjust="spacing" textLength="46.9629" x="409.5" y="30.5352">Record</text><text fill="#000000" font-family="sans-serif" font-size="10" font-style="italic" lengthAdjust="spacing" textLength="43.2813" x="411.3408" y="43.1563">java.lang</text></g><polygon fill="none" points="420,50.1898,414,68.1898,426,68.1898,420,50.1898" style="stroke:#181818;stroke-width:1.0;"/><path d="M420,68.1898 C420,77.6579 420,72.1045 420,85.7735 " fill="none" style="stroke:#181818;stroke-width:1.0;"/><text fill="#888888" font-family="sans-serif" font-size="10" lengthAdjust="spacing" textLength="3.1641" x="414.918" y="317.668">&#160;</text><text fill="#888888" font-family="sans-serif" font-size="10" lengthAdjust="spacing" textLength="236.626" x="298.187" y="329.4453">UMLDoclet 2.2.1-SNAPSHOT, PlantUML 1.2024.7</text><!--SRC=[ZLDTIyD047ptLwo2qA8zjEYBb80Yg50_CFL9VTWcs-RaSXlkjgsV_zrBeacm8kRXSZSppCw52G30Pk5mdYCOVE65WCz9qEB6Hg30au35d7o12SLKe4DX1vOjLNocKmBA2tc1cIQJ-fzeCCium1MU6FGUjaPUlzBH_a5q5fnZGQ47-uNjHVPLOQ9MSx7AhyWEXuVA92hb7BNT0lJmbq0rZd1_t-nL9hbvV8ItAaJvx3HSRwozZAfbeWsDBeJoA8fsuIPy3dAxK56tF6M9lWwNlCIfeHD-_aR6wCd5l7091KXR-MtfjzEdZ2xjzO_Wz-6jiAX2bCewJikuCf5lFEg0tGdFrBATnAt4jA5RPVSchLHqJcEQIIaBD-buq9BC6hhIgMHhQ4PwdgrR20kQYIFq2qTTzgFk34wzE4nahJotbB1BEyrvmYKgWtPUrQGvgLfOk_r4OVG-6FopKdM5oGevc36NhmTxTpa-vSI4tsIeXcf_45yTtyJdrvEgG5O23TjBSbwpxVK_0G00]--></g></svg>