<svg xmlns="http://www.w3.org/2000/svg" xmlns:xlink="http://www.w3.org/1999/xlink" contentStyleType="text/css" height="635px" preserveAspectRatio="none" style="width:1607px;height:635px;background:#FFFFFF;" version="1.1" viewBox="0 0 1607 635" width="1607px" zoomAndPan="magnify"><defs/><g><!--cluster nz.ac.wgtn.swen225.lc.domain--><g id="cluster_nz.ac.wgtn.swen225.lc.domain"><path d="M624.5,4 L842.999,4 A3.75,3.75 0 0 1 845.499,6.5 L852.499,26.4883 L1493.5,26.4883 A2.5,2.5 0 0 1 1496,28.9883 L1496,599.5 A2.5,2.5 0 0 1 1493.5,602 L624.5,602 A2.5,2.5 0 0 1 622,599.5 L622,6.5 A2.5,2.5 0 0 1 624.5,4 " fill="none" style="stroke:#000000;stroke-width:1.5;"/><line style="stroke:#000000;stroke-width:1.5;" x1="622" x2="852.499" y1="26.4883" y2="26.4883"/><text fill="#000000" font-family="sans-serif" font-size="14" font-weight="bold" lengthAdjust="spacing" textLength="217.499" x="626" y="19.5352">nz.ac.wgtn.swen225.lc.domain</text></g><!--cluster java.lang--><g id="cluster_java.lang"><path d="M1506.5,119.5 L1571.6006,119.5 A3.75,3.75 0 0 1 1574.1006,122 L1581.1006,141.9883 L1597.5,141.9883 A2.5,2.5 0 0 1 1600,144.4883 L1600,200 A2.5,2.5 0 0 1 1597.5,202.5 L1506.5,202.5 A2.5,2.5 0 0 1 1504,200 L1504,122 A2.5,2.5 0 0 1 1506.5,119.5 " fill="none" style="stroke:#000000;stroke-width:1.5;"/><line style="stroke:#000000;stroke-width:1.5;" x1="1504" x2="1581.1006" y1="141.9883" y2="141.9883"/><text fill="#000000" font-family="sans-serif" font-size="14" font-weight="bold" lengthAdjust="spacing" textLength="64.1006" x="1508" y="135.0352">java.lang</text></g><!--cluster nz.ac.wgtn.swen225.lc.domain.Interface--><g id="cluster_nz.ac.wgtn.swen225.lc.domain.Interface"><path d="M16.5,428.5 L302.2236,428.5 A3.75,3.75 0 0 1 304.7236,431 L311.7236,450.9883 L311.5,450.9883 A2.5,2.5 0 0 1 314,453.4883 L314,509 A2.5,2.5 0 0 1 311.5,511.5 L16.5,511.5 A2.5,2.5 0 0 1 14,509 L14,431 A2.5,2.5 0 0 1 16.5,428.5 " fill="none" style="stroke:#000000;stroke-width:1.5;"/><line style="stroke:#000000;stroke-width:1.5;" x1="14" x2="311.7236" y1="450.9883" y2="450.9883"/><text fill="#000000" font-family="sans-serif" font-size="14" font-weight="bold" lengthAdjust="spacing" textLength="284.7236" x="18" y="444.0352">nz.ac.wgtn.swen225.lc.domain.Interface</text></g><!--cluster nz.ac.wgtn.swen225.lc.domain.Utilities--><g id="cluster_nz.ac.wgtn.swen225.lc.domain.Utilities"><path d="M324.5,428.5 L602.4443,428.5 A3.75,3.75 0 0 1 604.9443,431 L611.9443,450.9883 L611.5,450.9883 A2.5,2.5 0 0 1 614,453.4883 L614,509 A2.5,2.5 0 0 1 611.5,511.5 L324.5,511.5 A2.5,2.5 0 0 1 322,509 L322,431 A2.5,2.5 0 0 1 324.5,428.5 " fill="none" style="stroke:#000000;stroke-width:1.5;"/><line style="stroke:#000000;stroke-width:1.5;" x1="322" x2="611.9443" y1="450.9883" y2="450.9883"/><text fill="#000000" font-family="sans-serif" font-size="14" font-weight="bold" lengthAdjust="spacing" textLength="276.9443" x="326" y="444.0352">nz.ac.wgtn.swen225.lc.domain.Utilities</text></g><!--class DomainLogger--><a href="DomainLogger.html" target="_top" title="DomainLogger.html" xlink:actuate="onRequest" xlink:href="DomainLogger.html" xlink:show="new" xlink:title="DomainLogger.html" xlink:type="simple"><g id="elem_DomainLogger"><rect codeLine="6" fill="#F1F1F1" height="80.9766" id="DomainLogger" rx="2.5" ry="2.5" style="stroke:#181818;stroke-width:0.5;" width="159.834" x="1328" y="130"/><ellipse cx="1355.6716" cy="146" fill="#EB937F" rx="11" ry="11" style="stroke:#181818;stroke-width:1.0;"/><path d="M1359.2859,152.5 L1351.5662,152.5 L1351.5662,140.1069 L1359.2859,140.1069 L1359.2859,142.2651 L1354.0149,142.2651 L1354.0149,144.938 L1358.7878,144.938 L1358.7878,147.0962 L1354.0149,147.0962 L1354.0149,150.3418 L1359.2859,150.3418 Z " fill="#000000"/><text fill="#000000" font-family="sans-serif" font-size="14" lengthAdjust="spacing" textLength="99.6748" x="1372.4875" y="151.291">DomainLogger</text><line style="stroke:#181818;stroke-width:0.5;" x1="1329" x2="1486.834" y1="162" y2="162"/><ellipse cx="1339" cy="175.7441" fill="none" rx="3" ry="3" style="stroke:#038048;stroke-width:1.0;"/><text fill="#000000" font-family="sans-serif" font-size="14" lengthAdjust="spacing" text-decoration="underline" textLength="55.0156" x="1348" y="179.5352">LOGGER</text><line style="stroke:#181818;stroke-width:0.5;" x1="1329" x2="1486.834" y1="186.4883" y2="186.4883"/><ellipse cx="1339" cy="200.2324" fill="#84BE84" rx="3" ry="3" style="stroke:#038048;stroke-width:1.0;"/><text fill="#000000" font-family="sans-serif" font-size="14" lengthAdjust="spacing" textLength="133.834" x="1348" y="204.0234">getLogger(): Logger</text></g></a><!--class Tile--><a href="Tile.html" target="_top" title="Tile.html" xlink:actuate="onRequest" xlink:href="Tile.html" xlink:show="new" xlink:title="Tile.html" xlink:type="simple"><g id="elem_Tile"><rect codeLine="11" fill="#F1F1F1" height="130.4414" id="Tile" rx="2.5" ry="2.5" style="stroke:#181818;stroke-width:0.5;" width="228.1592" x="630" y="105.5"/><ellipse cx="681.7808" cy="121.5" fill="#ADD1B2" rx="11" ry="11" style="stroke:#181818;stroke-width:1.0;"/><path d="M684.2539,127.6431 Q683.6729,127.9419 683.0337,128.0913 Q682.3945,128.2407 681.689,128.2407 Q679.1821,128.2407 677.8623,126.5889 Q676.5425,124.937 676.5425,121.8159 Q676.5425,118.6865 677.8623,117.0347 Q679.1821,115.3828 681.689,115.3828 Q682.3945,115.3828 683.042,115.5322 Q683.6895,115.6816 684.2539,115.9805 L684.2539,118.7031 Q683.623,118.1221 683.0295,117.8523 Q682.436,117.5825 681.8052,117.5825 Q680.4604,117.5825 679.7756,118.6492 Q679.0908,119.7158 679.0908,121.8159 Q679.0908,123.9077 679.7756,124.9744 Q680.4604,126.041 681.8052,126.041 Q682.436,126.041 683.0295,125.7712 Q683.623,125.5015 684.2539,124.9204 Z " fill="#000000"/><text fill="#000000" font-family="sans-serif" font-size="14" lengthAdjust="spacing" textLength="24.7461" x="702.2808" y="126.791">Tile</text><rect fill="#FFFFFF" height="16.1328" style="stroke:#181818;stroke-width:1.0;stroke-dasharray:2.0,2.0;" width="89.3516" x="771.8076" y="102.5"/><text fill="#000000" font-family="sans-serif" font-size="12" font-style="italic" lengthAdjust="spacing" textLength="87.3516" x="772.8076" y="115.1016">T extends Item</text><line style="stroke:#181818;stroke-width:0.5;" x1="631" x2="857.1592" y1="137.5" y2="137.5"/><line style="stroke:#181818;stroke-width:0.5;" x1="631" x2="857.1592" y1="145.5" y2="145.5"/><ellipse cx="641" cy="159.2441" fill="#84BE84" rx="3" ry="3" style="stroke:#038048;stroke-width:1.0;"/><text fill="#000000" font-family="sans-serif" font-size="14" lengthAdjust="spacing" textLength="202.1592" x="650" y="163.0352">Tile(T extends Item, Location)</text><ellipse cx="641" cy="175.7324" fill="#84BE84" rx="3" ry="3" style="stroke:#038048;stroke-width:1.0;"/><text fill="#000000" font-family="sans-serif" font-size="14" lengthAdjust="spacing" textLength="181.1797" x="650" y="179.5234">canStepOn(Actor): boolean</text><ellipse cx="641" cy="192.2207" fill="#84BE84" rx="3" ry="3" style="stroke:#038048;stroke-width:1.0;"/><text fill="#000000" font-family="sans-serif" font-size="14" lengthAdjust="spacing" textLength="134.9072" x="650" y="196.0117">onEntry(Actor): void</text><ellipse cx="641" cy="208.709" fill="#84BE84" rx="3" ry="3" style="stroke:#038048;stroke-width:1.0;"/><text fill="#000000" font-family="sans-serif" font-size="14" lengthAdjust="spacing" textLength="125.8086" x="650" y="212.5">onExit(Actor): void</text><ellipse cx="641" cy="225.1973" fill="#84BE84" rx="3" ry="3" style="stroke:#038048;stroke-width:1.0;"/><text fill="#000000" font-family="sans-serif" font-size="14" lengthAdjust="spacing" textLength="154.1504" x="650" y="228.9883">getItemOnTile(): String</text></g></a><!--class GameBoard--><a href="GameBoard.html" target="_top" title="GameBoard.html" xlink:actuate="onRequest" xlink:href="GameBoard.html" xlink:show="new" xlink:title="GameBoard.html" xlink:type="simple"><g id="elem_GameBoard"><rect codeLine="19" fill="#F1F1F1" height="278.8359" id="GameBoard" rx="2.5" ry="2.5" style="stroke:#181818;stroke-width:0.5;" width="432.7998" x="876.5" y="31"/><ellipse cx="1049.8286" cy="47" fill="#ADD1B2" rx="11" ry="11" style="stroke:#181818;stroke-width:1.0;"/><path d="M1052.3018,53.1431 Q1051.7207,53.4419 1051.0815,53.5913 Q1050.4424,53.7407 1049.7368,53.7407 Q1047.23,53.7407 1045.9102,52.0889 Q1044.5903,50.437 1044.5903,47.3159 Q1044.5903,44.1865 1045.9102,42.5347 Q1047.23,40.8828 1049.7368,40.8828 Q1050.4424,40.8828 1051.0898,41.0322 Q1051.7373,41.1816 1052.3018,41.4805 L1052.3018,44.2031 Q1051.6709,43.6221 1051.0774,43.3523 Q1050.4839,43.0825 1049.853,43.0825 Q1048.5083,43.0825 1047.8235,44.1492 Q1047.1387,45.2158 1047.1387,47.3159 Q1047.1387,49.4077 1047.8235,50.4744 Q1048.5083,51.541 1049.853,51.541 Q1050.4839,51.541 1051.0774,51.2712 Q1051.6709,51.0015 1052.3018,50.4204 Z " fill="#000000"/><text fill="#000000" font-family="sans-serif" font-size="14" lengthAdjust="spacing" textLength="77.6426" x="1070.3286" y="52.291">GameBoard</text><line style="stroke:#181818;stroke-width:0.5;" x1="877.5" x2="1308.2998" y1="63" y2="63"/><ellipse cx="887.5" cy="76.7441" fill="none" rx="3" ry="3" style="stroke:#038048;stroke-width:1.0;"/><text fill="#000000" font-family="sans-serif" font-size="14" lengthAdjust="spacing" text-decoration="underline" textLength="153.9111" x="896.5" y="80.5352">domainLogger: Logger</text><line style="stroke:#181818;stroke-width:0.5;" x1="877.5" x2="1308.2998" y1="87.4883" y2="87.4883"/><ellipse cx="887.5" cy="101.2324" fill="#84BE84" rx="3" ry="3" style="stroke:#038048;stroke-width:1.0;"/><text fill="#000000" font-family="sans-serif" font-size="14" lengthAdjust="spacing" textLength="211.5654" x="896.5" y="105.0234">GameBoard(GameBoardBuilder)</text><ellipse cx="887.5" cy="117.7207" fill="#84BE84" rx="3" ry="3" style="stroke:#038048;stroke-width:1.0;"/><text fill="#000000" font-family="sans-serif" font-size="14" lengthAdjust="spacing" textLength="149.9463" x="896.5" y="121.5117">action(Direction): void</text><ellipse cx="887.5" cy="134.209" fill="#84BE84" rx="3" ry="3" style="stroke:#038048;stroke-width:1.0;"/><text fill="#000000" font-family="sans-serif" font-size="14" lengthAdjust="spacing" textLength="96.4619" x="896.5" y="138">getWidth(): int</text><ellipse cx="887.5" cy="150.6973" fill="#84BE84" rx="3" ry="3" style="stroke:#038048;stroke-width:1.0;"/><text fill="#000000" font-family="sans-serif" font-size="14" lengthAdjust="spacing" textLength="102.4912" x="896.5" y="154.4883">getHeight(): int</text><ellipse cx="887.5" cy="167.1855" fill="#84BE84" rx="3" ry="3" style="stroke:#038048;stroke-width:1.0;"/><text fill="#000000" font-family="sans-serif" font-size="14" lengthAdjust="spacing" textLength="141.8662" x="896.5" y="170.9766">activateLasers(): void</text><ellipse cx="887.5" cy="183.6738" fill="#84BE84" rx="3" ry="3" style="stroke:#038048;stroke-width:1.0;"/><text fill="#000000" font-family="sans-serif" font-size="14" lengthAdjust="spacing" textLength="248.083" x="896.5" y="187.4648">getBoard(): List&lt;List&lt;Tile&lt;Item&gt;&gt;&gt;</text><ellipse cx="887.5" cy="200.1621" fill="#84BE84" rx="3" ry="3" style="stroke:#038048;stroke-width:1.0;"/><text fill="#000000" font-family="sans-serif" font-size="14" lengthAdjust="spacing" textLength="227.1104" x="896.5" y="203.9531">itemOnTile(Location): Tile&lt;Item&gt;</text><ellipse cx="887.5" cy="216.6504" fill="#84BE84" rx="3" ry="3" style="stroke:#038048;stroke-width:1.0;"/><text fill="#000000" font-family="sans-serif" font-size="14" lengthAdjust="spacing" textLength="162.9072" x="896.5" y="220.4414">configureButtons(): void</text><ellipse cx="887.5" cy="233.1387" fill="#84BE84" rx="3" ry="3" style="stroke:#038048;stroke-width:1.0;"/><text fill="#000000" font-family="sans-serif" font-size="14" lengthAdjust="spacing" textLength="281.4014" x="896.5" y="236.9297">findBoxAtLocation(Location): MovableBox</text><ellipse cx="887.5" cy="249.627" fill="#84BE84" rx="3" ry="3" style="stroke:#038048;stroke-width:1.0;"/><text fill="#000000" font-family="sans-serif" font-size="14" lengthAdjust="spacing" textLength="143.5273" x="896.5" y="253.418">copyOf(): GameBoard</text><ellipse cx="887.5" cy="266.1152" fill="#84BE84" rx="3" ry="3" style="stroke:#038048;stroke-width:1.0;"/><text fill="#000000" font-family="sans-serif" font-size="14" lengthAdjust="spacing" textLength="92.0186" x="896.5" y="269.9063">keysLeft(): int</text><ellipse cx="887.5" cy="282.6035" fill="#84BE84" rx="3" ry="3" style="stroke:#038048;stroke-width:1.0;"/><text fill="#000000" font-family="sans-serif" font-size="14" lengthAdjust="spacing" text-decoration="underline" textLength="406.7998" x="896.5" y="286.3945">unsubscribeGameState(T extends GameStateObserver): void</text><ellipse cx="887.5" cy="299.0918" fill="#84BE84" rx="3" ry="3" style="stroke:#038048;stroke-width:1.0;"/><text fill="#000000" font-family="sans-serif" font-size="14" lengthAdjust="spacing" textLength="153.9658" x="896.5" y="302.8828">notifyObservers(): void</text></g></a><!--class GameState--><a href="GameState.html" target="_top" title="GameState.html" xlink:actuate="onRequest" xlink:href="GameState.html" xlink:show="new" xlink:title="GameState.html" xlink:type="simple"><g id="elem_GameState"><rect codeLine="36" fill="#F1F1F1" height="229.3711" id="GameState" rx="2.5" ry="2.5" style="stroke:#181818;stroke-width:0.5;" width="828.1973" x="660" y="365"/><ellipse cx="1033.7173" cy="381" fill="#ADD1B2" rx="11" ry="11" style="stroke:#181818;stroke-width:1.0;"/><path d="M1036.1904,387.1431 Q1035.6094,387.4419 1034.9702,387.5913 Q1034.3311,387.7407 1033.6255,387.7407 Q1031.1187,387.7407 1029.7988,386.0889 Q1028.479,384.437 1028.479,381.3159 Q1028.479,378.1865 1029.7988,376.5347 Q1031.1187,374.8828 1033.6255,374.8828 Q1034.3311,374.8828 1034.9785,375.0322 Q1035.626,375.1816 1036.1904,375.4805 L1036.1904,378.2031 Q1035.5596,377.6221 1034.9661,377.3523 Q1034.3726,377.0825 1033.7417,377.0825 Q1032.397,377.0825 1031.7122,378.1492 Q1031.0273,379.2158 1031.0273,381.3159 Q1031.0273,383.4077 1031.7122,384.4744 Q1032.397,385.541 1033.7417,385.541 Q1034.3726,385.541 1034.9661,385.2712 Q1035.5596,385.0015 1036.1904,384.4204 Z " fill="#000000"/><text fill="#000000" font-family="sans-serif" font-size="14" lengthAdjust="spacing" textLength="72.2627" x="1054.2173" y="386.291">GameState</text><line style="stroke:#181818;stroke-width:0.5;" x1="661" x2="1487.1973" y1="397" y2="397"/><line style="stroke:#181818;stroke-width:0.5;" x1="661" x2="1487.1973" y1="405" y2="405"/><ellipse cx="671" cy="418.7441" fill="#84BE84" rx="3" ry="3" style="stroke:#038048;stroke-width:1.0;"/><text fill="#000000" font-family="sans-serif" font-size="14" lengthAdjust="spacing" textLength="802.1973" x="680" y="422.5352">GameState(List&lt;List&lt;Tile&lt;Item&gt;&gt;&gt;, Player, List&lt;Robot&gt;, List&lt;MovableBox&gt;, List&lt;LaserSource&gt;, int, int, int, int, int)</text><ellipse cx="671" cy="435.2324" fill="#84BE84" rx="3" ry="3" style="stroke:#038048;stroke-width:1.0;"/><text fill="#000000" font-family="sans-serif" font-size="14" lengthAdjust="spacing" textLength="227.0762" x="680" y="439.0234">board(): List&lt;List&lt;Tile&lt;Item&gt;&gt;&gt;</text><ellipse cx="671" cy="451.7207" fill="#84BE84" rx="3" ry="3" style="stroke:#038048;stroke-width:1.0;"/><text fill="#000000" font-family="sans-serif" font-size="14" lengthAdjust="spacing" textLength="99.7568" x="680" y="455.5117">player(): Player</text><ellipse cx="671" cy="468.209" fill="#84BE84" rx="3" ry="3" style="stroke:#038048;stroke-width:1.0;"/><text fill="#000000" font-family="sans-serif" font-size="14" lengthAdjust="spacing" textLength="148.3193" x="680" y="472">robots(): List&lt;Robot&gt;</text><ellipse cx="671" cy="484.6973" fill="#84BE84" rx="3" ry="3" style="stroke:#038048;stroke-width:1.0;"/><text fill="#000000" font-family="sans-serif" font-size="14" lengthAdjust="spacing" textLength="186.5732" x="680" y="488.4883">boxes(): List&lt;MovableBox&gt;</text><ellipse cx="671" cy="501.1855" fill="#84BE84" rx="3" ry="3" style="stroke:#038048;stroke-width:1.0;"/><text fill="#000000" font-family="sans-serif" font-size="14" lengthAdjust="spacing" textLength="230.6035" x="680" y="504.9766">laserSources(): List&lt;LaserSource&gt;</text><ellipse cx="671" cy="517.6738" fill="#84BE84" rx="3" ry="3" style="stroke:#038048;stroke-width:1.0;"/><text fill="#000000" font-family="sans-serif" font-size="14" lengthAdjust="spacing" textLength="91.7383" x="680" y="521.4648">timeLeft(): int</text><ellipse cx="671" cy="534.1621" fill="#84BE84" rx="3" ry="3" style="stroke:#038048;stroke-width:1.0;"/><text fill="#000000" font-family="sans-serif" font-size="14" lengthAdjust="spacing" textLength="66.876" x="680" y="537.9531">level(): int</text><ellipse cx="671" cy="550.6504" fill="#84BE84" rx="3" ry="3" style="stroke:#038048;stroke-width:1.0;"/><text fill="#000000" font-family="sans-serif" font-size="14" lengthAdjust="spacing" textLength="73.5068" x="680" y="554.4414">width(): int</text><ellipse cx="671" cy="567.1387" fill="#84BE84" rx="3" ry="3" style="stroke:#038048;stroke-width:1.0;"/><text fill="#000000" font-family="sans-serif" font-size="14" lengthAdjust="spacing" textLength="79.126" x="680" y="570.9297">height(): int</text><ellipse cx="671" cy="583.627" fill="#84BE84" rx="3" ry="3" style="stroke:#038048;stroke-width:1.0;"/><text fill="#000000" font-family="sans-serif" font-size="14" lengthAdjust="spacing" textLength="126.2529" x="680" y="587.418">totalTreasure(): int</text></g></a><!--class Record--><g id="elem_Record"><rect codeLine="53" fill="#F1F1F1" height="48" id="Record" rx="2.5" ry="2.5" style="stroke:#181818;stroke-width:0.5;" width="78.9629" x="1512.5" y="146.5"/><ellipse cx="1527.5" cy="162.5" fill="#A9DCDF" rx="11" ry="11" style="stroke:#181818;stroke-width:1.0;"/><path d="M1527.3633,157.8481 L1526.2095,162.9199 L1528.5254,162.9199 Z M1525.8691,155.6069 L1528.8657,155.6069 L1532.2109,168 L1529.7622,168 L1528.9985,164.937 L1525.7197,164.937 L1524.9727,168 L1522.5239,168 Z " fill="#000000"/><text fill="#000000" font-family="sans-serif" font-size="14" font-style="italic" lengthAdjust="spacing" textLength="46.9629" x="1541.5" y="167.791">Record</text><line style="stroke:#181818;stroke-width:0.5;" x1="1513.5" x2="1590.4629" y1="178.5" y2="178.5"/><line style="stroke:#181818;stroke-width:0.5;" x1="1513.5" x2="1590.4629" y1="186.5" y2="186.5"/></g><!--class Item--><g id="elem_Item"><rect fill="#F1F1F1" height="48" id="Item" rx="2.5" ry="2.5" style="stroke:#181818;stroke-width:0.5;" width="62.1396" x="244" y="455.5"/><ellipse cx="259" cy="471.5" fill="#ADD1B2" rx="11" ry="11" style="stroke:#181818;stroke-width:1.0;"/><path d="M261.4731,477.6431 Q260.8921,477.9419 260.2529,478.0913 Q259.6138,478.2407 258.9082,478.2407 Q256.4014,478.2407 255.0815,476.5889 Q253.7617,474.937 253.7617,471.8159 Q253.7617,468.6865 255.0815,467.0347 Q256.4014,465.3828 258.9082,465.3828 Q259.6138,465.3828 260.2612,465.5322 Q260.9087,465.6816 261.4731,465.9805 L261.4731,468.7031 Q260.8423,468.1221 260.2488,467.8523 Q259.6553,467.5825 259.0244,467.5825 Q257.6797,467.5825 256.9949,468.6492 Q256.3101,469.7158 256.3101,471.8159 Q256.3101,473.9077 256.9949,474.9744 Q257.6797,476.041 259.0244,476.041 Q259.6553,476.041 260.2488,475.7712 Q260.8423,475.5015 261.4731,474.9204 Z " fill="#000000"/><text fill="#000000" font-family="sans-serif" font-size="14" lengthAdjust="spacing" textLength="30.1396" x="273" y="476.791">Item</text><line style="stroke:#181818;stroke-width:0.5;" x1="245" x2="305.1396" y1="487.5" y2="487.5"/><line style="stroke:#181818;stroke-width:0.5;" x1="245" x2="305.1396" y1="495.5" y2="495.5"/></g><!--class Location--><g id="elem_Location"><rect fill="#F1F1F1" height="48" id="Location" rx="2.5" ry="2.5" style="stroke:#181818;stroke-width:0.5;" width="89.5381" x="516" y="455.5"/><ellipse cx="531" cy="471.5" fill="#ADD1B2" rx="11" ry="11" style="stroke:#181818;stroke-width:1.0;"/><path d="M533.4731,477.6431 Q532.8921,477.9419 532.2529,478.0913 Q531.6138,478.2407 530.9082,478.2407 Q528.4014,478.2407 527.0815,476.5889 Q525.7617,474.937 525.7617,471.8159 Q525.7617,468.6865 527.0815,467.0347 Q528.4014,465.3828 530.9082,465.3828 Q531.6138,465.3828 532.2612,465.5322 Q532.9087,465.6816 533.4731,465.9805 L533.4731,468.7031 Q532.8423,468.1221 532.2488,467.8523 Q531.6553,467.5825 531.0244,467.5825 Q529.6797,467.5825 528.9949,468.6492 Q528.3101,469.7158 528.3101,471.8159 Q528.3101,473.9077 528.9949,474.9744 Q529.6797,476.041 531.0244,476.041 Q531.6553,476.041 532.2488,475.7712 Q532.8423,475.5015 533.4731,474.9204 Z " fill="#000000"/><text fill="#000000" font-family="sans-serif" font-size="14" lengthAdjust="spacing" textLength="57.5381" x="545" y="476.791">Location</text><line style="stroke:#181818;stroke-width:0.5;" x1="517" x2="604.5381" y1="487.5" y2="487.5"/><line style="stroke:#181818;stroke-width:0.5;" x1="517" x2="604.5381" y1="495.5" y2="495.5"/></g><polygon fill="#181818" points="278.4219,455.2849,284.0431,447.1977,279.3622,450.3741,276.1858,445.6933,278.4219,455.2849" style="stroke:#181818;stroke-width:1.0;"/><path d="M629.6643,197.4327 C534.5982,224.4532 401.7643,275.6763 318,365 C294.2171,390.3613 284.3571,424.2876 279.5503,449.392 " fill="none" style="stroke:#181818;stroke-width:1.0;"/><text fill="#000000" font-family="sans-serif" font-size="13" lengthAdjust="spacing" textLength="27.9995" x="357" y="342.5684">item</text><polygon fill="#181818" points="571.6229,455.4948,579.0766,449.0573,573.7535,450.9714,571.8393,445.6483,571.6229,455.4948" style="stroke:#181818;stroke-width:1.0;"/><path d="M699.5759,235.7523 C674.5623,272.8836 643.3545,320.8506 618,365 C600.4302,395.594 585.1137,426.8535 574.1796,450.0668 " fill="none" style="stroke:#181818;stroke-width:1.0;"/><text fill="#000000" font-family="sans-serif" font-size="13" lengthAdjust="spacing" textLength="50.2544" x="640" y="342.5684">location</text><polygon fill="#181818" points="1081.0368,364.8005,1085.5851,356.0648,1081.3456,359.8101,1077.6004,355.5706,1081.0368,364.8005" style="stroke:#181818;stroke-width:1.0;"/><path d="M1084.4172,310.1802 C1083.2862,328.4539 1082.5084,341.0217 1081.4074,358.812 " fill="none" style="stroke:#181818;stroke-width:1.0;"/><text fill="#000000" font-family="sans-serif" font-size="13" lengthAdjust="spacing" textLength="65.8125" x="1084" y="342.5684">gameState</text><polygon fill="none" points="1549.1384,194.694,1540.3399,211.5043,1552.1857,213.4213,1549.1384,194.694" style="stroke:#181818;stroke-width:1.0;"/><path d="M1546.2628,212.4628 C1541.3597,242.7603 1531.5032,277.9409 1500,310 C1479.6531,330.7059 1456.4483,348.9327 1431.6142,364.9665 " fill="none" style="stroke:#181818;stroke-width:1.0;"/><text fill="#888888" font-family="sans-serif" font-size="10" lengthAdjust="spacing" textLength="3.1641" x="793.918" y="613.668">&#160;</text><text fill="#888888" font-family="sans-serif" font-size="10" lengthAdjust="spacing" textLength="236.626" x="677.187" y="625.4453">UMLDoclet 2.2.1-SNAPSHOT, PlantUML 1.2024.7</text><!--SRC=[hLLDJ-Cm4BtpAxo7bOfA8ssblKIe4XK8aCeMqQ8zi1mSPvfwSUpAdfHsMVuxjfFceqs0bRQ7T3BpF9vvy-mGGiYNbQP9IecWMvKXCIaWbVJ8HeW1-muhgYagJSBmo7jNb3tH18Zy4r0MF2Se0_CCSZZy7WWMn2gbN9AN7Ej-8BEKd7ltH2K9QFBmK7yDbfYAnqUxXDH-BmOfSlPA-fFfvUN5NIFOJm3pnRtZaEHM2NYjjcQ26aFcNC3fdC06GSQ6N2Ea8rk3SxVltNUXNdF5YTs6sOgKF6vY6PKpXDLKziwOfSdM4oabWCecJCaBYNfRWjQAnmU83STt0BPfLybK-l8iP8QQowIxyKkQmbXH7TjkI_iZkkFQQ0wuzNMKgNgbDSwuY47lKKEPuwjtpZLugwkhdpp6fMk8Ipm8NW5FbjWQTVdN56523MZJwqgVr-g4mWsU-eUNX1V2QDJ4yuhXSk0XgV1xmrTomPDCmpX3LBAZXWMNyLXjpd2NiPxwHgrf92oDc_tKg-rquHAMB3S1Jx0r4rYqKbEDCvCcYmpJF0ANPsRzTMcNlcbaELn3k_AaGhxOxY27NROgpwSjbEVjZiDMbTK-dnDoQ-ycq2Vv_EvKf71Kl5JaxJnU2pELQGRMPNbfU-pfDFeNWQnyCGwTbzMCQbUTANFbnUxlje4AKUkW2HDL8nMwtbqJZZo5BZNq1Qn1j4QUEu_UillSeK8gvXgeiShVHnHQU6r-B7xJDGq4bKbj-ZGogEqPBZHp1qmL6YyMl_U52KCt8Z8OZDw51TSIGIyeWp1quxIrskT_otwFN73aOC9mTwH38Whh4xjKD_H7M-LOVqv2aknClqN9RHZc79BJluF1PxFv50mSJMIXbFlx9Uzl9kUA2Vlz7mR3uDjWzkFiTdOrdVkpAD66oLTt4xYxxFWD]--></g></svg>