<svg xmlns="http://www.w3.org/2000/svg" xmlns:xlink="http://www.w3.org/1999/xlink" contentStyleType="text/css" height="584px" preserveAspectRatio="none" style="width:1035px;height:584px;background:#FFFFFF;" version="1.1" viewBox="0 0 1035 584" width="1035px" zoomAndPan="magnify"><defs/><g><!--cluster nz.ac.wgtn.swen225.lc.render--><g id="cluster_nz.ac.wgtn.swen225.lc.render"><path d="M16.5,4 L228.833,4 A3.75,3.75 0 0 1 231.333,6.5 L238.333,26.4883 L1025.5,26.4883 A2.5,2.5 0 0 1 1028,28.9883 L1028,548.5 A2.5,2.5 0 0 1 1025.5,551 L16.5,551 A2.5,2.5 0 0 1 14,548.5 L14,6.5 A2.5,2.5 0 0 1 16.5,4 " fill="none" style="stroke:#000000;stroke-width:1.5;"/><line style="stroke:#000000;stroke-width:1.5;" x1="14" x2="238.333" y1="26.4883" y2="26.4883"/><text fill="#000000" font-family="sans-serif" font-size="14" font-weight="bold" lengthAdjust="spacing" textLength="211.333" x="18" y="19.5352">nz.ac.wgtn.swen225.lc.render</text></g><!--class SoundEffectImplement--><a href="SoundEffectImplement.html" target="_top" title="SoundEffectImplement.html" xlink:actuate="onRequest" xlink:href="SoundEffectImplement.html" xlink:show="new" xlink:title="SoundEffectImplement.html" xlink:type="simple"><g id="elem_SoundEffectImplement"><rect codeLine="6" fill="#F1F1F1" height="130.4414" id="SoundEffectImplement" rx="2.5" ry="2.5" style="stroke:#181818;stroke-width:0.5;" width="312.1318" x="34" y="31"/><ellipse cx="109.3286" cy="47" fill="#ADD1B2" rx="11" ry="11" style="stroke:#181818;stroke-width:1.0;"/><path d="M111.8018,53.1431 Q111.2207,53.4419 110.5815,53.5913 Q109.9424,53.7407 109.2368,53.7407 Q106.73,53.7407 105.4102,52.0889 Q104.0903,50.437 104.0903,47.3159 Q104.0903,44.1865 105.4102,42.5347 Q106.73,40.8828 109.2368,40.8828 Q109.9424,40.8828 110.5898,41.0322 Q111.2373,41.1816 111.8018,41.4805 L111.8018,44.2031 Q111.1709,43.6221 110.5774,43.3523 Q109.9839,43.0825 109.353,43.0825 Q108.0083,43.0825 107.3235,44.1492 Q106.6387,45.2158 106.6387,47.3159 Q106.6387,49.4077 107.3235,50.4744 Q108.0083,51.541 109.353,51.541 Q109.9839,51.541 110.5774,51.2712 Q111.1709,51.0015 111.8018,50.4204 Z " fill="#000000"/><text fill="#000000" font-family="sans-serif" font-size="14" lengthAdjust="spacing" textLength="152.9746" x="129.8286" y="52.291">SoundEffectImplement</text><line style="stroke:#181818;stroke-width:0.5;" x1="35" x2="345.1318" y1="63" y2="63"/><line style="stroke:#181818;stroke-width:0.5;" x1="35" x2="345.1318" y1="71" y2="71"/><ellipse cx="45" cy="84.7441" fill="#84BE84" rx="3" ry="3" style="stroke:#038048;stroke-width:1.0;"/><text fill="#000000" font-family="sans-serif" font-size="14" lengthAdjust="spacing" text-decoration="underline" textLength="128.5635" x="54" y="88.5352">sound(String): void</text><ellipse cx="45" cy="101.2324" fill="#84BE84" rx="3" ry="3" style="stroke:#038048;stroke-width:1.0;"/><text fill="#000000" font-family="sans-serif" font-size="14" lengthAdjust="spacing" text-decoration="underline" textLength="135.7412" x="54" y="105.0234">mute(boolean): void</text><ellipse cx="45" cy="117.7207" fill="#84BE84" rx="3" ry="3" style="stroke:#038048;stroke-width:1.0;"/><text fill="#000000" font-family="sans-serif" font-size="14" lengthAdjust="spacing" textLength="286.1318" x="54" y="121.5117">eachFillAction(GameState, Class&lt;?&gt;): void</text><ellipse cx="45" cy="134.209" fill="#84BE84" rx="3" ry="3" style="stroke:#038048;stroke-width:1.0;"/><text fill="#000000" font-family="sans-serif" font-size="14" lengthAdjust="spacing" textLength="179.6211" x="54" y="138">fillAction(GameState): void</text><ellipse cx="45" cy="150.6973" fill="#84BE84" rx="3" ry="3" style="stroke:#038048;stroke-width:1.0;"/><text fill="#000000" font-family="sans-serif" font-size="14" lengthAdjust="spacing" textLength="213.9375" x="54" y="154.4883">locationMatch(GameState): void</text></g></a><!--class Img--><a href="Img.html" target="_top" title="Img.html" xlink:actuate="onRequest" xlink:href="Img.html" xlink:show="new" xlink:title="Img.html" xlink:type="simple"><g id="elem_Img"><rect codeLine="14" fill="#F1F1F1" height="113.9531" id="Img" rx="2.5" ry="2.5" style="stroke:#181818;stroke-width:0.5;" width="262.2568" x="364" y="39"/><ellipse cx="477.9619" cy="55" fill="#EB937F" rx="11" ry="11" style="stroke:#181818;stroke-width:1.0;"/><path d="M481.5762,61.5 L473.8564,61.5 L473.8564,49.1069 L481.5762,49.1069 L481.5762,51.2651 L476.3052,51.2651 L476.3052,53.938 L481.0781,53.938 L481.0781,56.0962 L476.3052,56.0962 L476.3052,59.3418 L481.5762,59.3418 Z " fill="#000000"/><text fill="#000000" font-family="sans-serif" font-size="14" lengthAdjust="spacing" textLength="25.833" x="498.4619" y="60.291">Img</text><line style="stroke:#181818;stroke-width:0.5;" x1="365" x2="625.2568" y1="71" y2="71"/><ellipse cx="375" cy="84.7441" fill="none" rx="3" ry="3" style="stroke:#038048;stroke-width:1.0;"/><text fill="#000000" font-family="sans-serif" font-size="14" lengthAdjust="spacing" text-decoration="underline" textLength="68.0449" x="384" y="88.5352">INSTANCE</text><line style="stroke:#181818;stroke-width:0.5;" x1="365" x2="625.2568" y1="95.4883" y2="95.4883"/><ellipse cx="375" cy="109.2324" fill="#84BE84" rx="3" ry="3" style="stroke:#038048;stroke-width:1.0;"/><text fill="#000000" font-family="sans-serif" font-size="14" lengthAdjust="spacing" textLength="117.2227" x="384" y="113.0234">loadImage(): void</text><ellipse cx="375" cy="125.7207" fill="#84BE84" rx="3" ry="3" style="stroke:#038048;stroke-width:1.0;"/><text fill="#000000" font-family="sans-serif" font-size="14" lengthAdjust="spacing" text-decoration="underline" textLength="236.2568" x="384" y="129.5117">resizeImage(Image, int, int): Image</text><ellipse cx="375" cy="142.209" fill="#84BE84" rx="3" ry="3" style="stroke:#038048;stroke-width:1.0;"/><text fill="#000000" font-family="sans-serif" font-size="14" lengthAdjust="spacing" textLength="154.0342" x="384" y="146">getImgs(String): Image</text></g></a><!--class BackgroundImplement--><a href="BackgroundImplement.html" target="_top" title="BackgroundImplement.html" xlink:actuate="onRequest" xlink:href="BackgroundImplement.html" xlink:show="new" xlink:title="BackgroundImplement.html" xlink:type="simple"><g id="elem_BackgroundImplement"><rect codeLine="21" fill="#F1F1F1" height="80.9766" id="BackgroundImplement" rx="2.5" ry="2.5" style="stroke:#181818;stroke-width:0.5;" width="296.1494" x="644" y="55.5"/><ellipse cx="711.3545" cy="71.5" fill="#ADD1B2" rx="11" ry="11" style="stroke:#181818;stroke-width:1.0;"/><path d="M713.8276,77.6431 Q713.2466,77.9419 712.6074,78.0913 Q711.9683,78.2407 711.2627,78.2407 Q708.7559,78.2407 707.436,76.5889 Q706.1162,74.937 706.1162,71.8159 Q706.1162,68.6865 707.436,67.0347 Q708.7559,65.3828 711.2627,65.3828 Q711.9683,65.3828 712.6157,65.5322 Q713.2632,65.6816 713.8276,65.9805 L713.8276,68.7031 Q713.1968,68.1221 712.6033,67.8523 Q712.0098,67.5825 711.3789,67.5825 Q710.0342,67.5825 709.3494,68.6492 Q708.6646,69.7158 708.6646,71.8159 Q708.6646,73.9077 709.3494,74.9744 Q710.0342,76.041 711.3789,76.041 Q712.0098,76.041 712.6033,75.7712 Q713.1968,75.5015 713.8276,74.9204 Z " fill="#000000"/><text fill="#000000" font-family="sans-serif" font-size="14" lengthAdjust="spacing" textLength="152.9404" x="731.8545" y="76.791">BackgroundImplement</text><line style="stroke:#181818;stroke-width:0.5;" x1="645" x2="939.1494" y1="87.5" y2="87.5"/><line style="stroke:#181818;stroke-width:0.5;" x1="645" x2="939.1494" y1="95.5" y2="95.5"/><ellipse cx="655" cy="109.2441" fill="#84BE84" rx="3" ry="3" style="stroke:#038048;stroke-width:1.0;"/><text fill="#000000" font-family="sans-serif" font-size="14" lengthAdjust="spacing" textLength="200.3682" x="664" y="113.0352">backgroundImplement(): void</text><ellipse cx="655" cy="125.7324" fill="#84BE84" rx="3" ry="3" style="stroke:#038048;stroke-width:1.0;"/><text fill="#000000" font-family="sans-serif" font-size="14" lengthAdjust="spacing" textLength="270.1494" x="664" y="129.5234">drawBackGround(JPanel, Graphics): void</text></g></a><!--class ImageImplement--><a href="ImageImplement.html" target="_top" title="ImageImplement.html" xlink:actuate="onRequest" xlink:href="ImageImplement.html" xlink:show="new" xlink:title="ImageImplement.html" xlink:type="simple"><g id="elem_ImageImplement"><rect codeLine="26" fill="#F1F1F1" height="179.9063" id="ImageImplement" rx="2.5" ry="2.5" style="stroke:#181818;stroke-width:0.5;" width="336.3789" x="22" y="197"/><ellipse cx="128.979" cy="213" fill="#ADD1B2" rx="11" ry="11" style="stroke:#181818;stroke-width:1.0;"/><path d="M131.4521,219.1431 Q130.8711,219.4419 130.2319,219.5913 Q129.5928,219.7407 128.8872,219.7407 Q126.3804,219.7407 125.0605,218.0889 Q123.7407,216.437 123.7407,213.3159 Q123.7407,210.1865 125.0605,208.5347 Q126.3804,206.8828 128.8872,206.8828 Q129.5928,206.8828 130.2402,207.0322 Q130.8877,207.1816 131.4521,207.4805 L131.4521,210.2031 Q130.8213,209.6221 130.2278,209.3523 Q129.6343,209.0825 129.0034,209.0825 Q127.6587,209.0825 126.9739,210.1492 Q126.2891,211.2158 126.2891,213.3159 Q126.2891,215.4077 126.9739,216.4744 Q127.6587,217.541 129.0034,217.541 Q129.6343,217.541 130.2278,217.2712 Q130.8213,217.0015 131.4521,216.4204 Z " fill="#000000"/><text fill="#000000" font-family="sans-serif" font-size="14" lengthAdjust="spacing" textLength="113.9209" x="149.479" y="218.291">ImageImplement</text><line style="stroke:#181818;stroke-width:0.5;" x1="23" x2="357.3789" y1="229" y2="229"/><ellipse cx="33" cy="242.7441" fill="none" rx="3" ry="3" style="stroke:#038048;stroke-width:1.0;"/><text fill="#000000" font-family="sans-serif" font-size="14" lengthAdjust="spacing" text-decoration="underline" textLength="104.9111" x="42" y="246.5352">IMAGE_SIZE: int</text><line style="stroke:#181818;stroke-width:0.5;" x1="23" x2="357.3789" y1="253.4883" y2="253.4883"/><ellipse cx="33" cy="267.2324" fill="#84BE84" rx="3" ry="3" style="stroke:#038048;stroke-width:1.0;"/><text fill="#000000" font-family="sans-serif" font-size="14" lengthAdjust="spacing" text-decoration="underline" textLength="307.9316" x="42" y="271.0234">getImageImplement(JPanel): ImageImplement</text><ellipse cx="33" cy="283.7207" fill="#84BE84" rx="3" ry="3" style="stroke:#038048;stroke-width:1.0;"/><text fill="#000000" font-family="sans-serif" font-size="14" lengthAdjust="spacing" textLength="268.7822" x="42" y="287.5117">drawImages(GameState, Graphics): void</text><ellipse cx="33" cy="300.209" fill="#84BE84" rx="3" ry="3" style="stroke:#038048;stroke-width:1.0;"/><text fill="#000000" font-family="sans-serif" font-size="14" lengthAdjust="spacing" textLength="282.3037" x="42" y="304">drawItemsTile(GameState, Graphics): void</text><ellipse cx="33" cy="316.6973" fill="#84BE84" rx="3" ry="3" style="stroke:#038048;stroke-width:1.0;"/><text fill="#000000" font-family="sans-serif" font-size="14" lengthAdjust="spacing" textLength="263.8125" x="42" y="320.4883">drawActors(GameState, Graphics): void</text><ellipse cx="33" cy="333.1855" fill="#84BE84" rx="3" ry="3" style="stroke:#038048;stroke-width:1.0;"/><text fill="#000000" font-family="sans-serif" font-size="14" lengthAdjust="spacing" textLength="310.3789" x="42" y="336.9766">drawOneImage(String, int, int, Graphics): void</text><ellipse cx="33" cy="349.6738" fill="#84BE84" rx="3" ry="3" style="stroke:#038048;stroke-width:1.0;"/><text fill="#000000" font-family="sans-serif" font-size="14" lengthAdjust="spacing" textLength="260.4561" x="42" y="353.4648">drawBoxes(GameState, Graphics): void</text><ellipse cx="33" cy="366.1621" fill="#84BE84" rx="3" ry="3" style="stroke:#038048;stroke-width:1.0;"/><text fill="#000000" font-family="sans-serif" font-size="14" lengthAdjust="spacing" textLength="263.2793" x="42" y="369.9531">drawLasers(GameState, Graphics): void</text></g></a><!--class InfoImplement--><a href="InfoImplement.html" target="_top" title="InfoImplement.html" xlink:actuate="onRequest" xlink:href="InfoImplement.html" xlink:show="new" xlink:title="InfoImplement.html" xlink:type="simple"><g id="elem_InfoImplement"><rect codeLine="37" fill="#F1F1F1" height="130.4414" id="InfoImplement" rx="2.5" ry="2.5" style="stroke:#181818;stroke-width:0.5;" width="273.9121" x="376" y="222"/><ellipse cx="459.1934" cy="238" fill="#ADD1B2" rx="11" ry="11" style="stroke:#181818;stroke-width:1.0;"/><path d="M461.6665,244.1431 Q461.0854,244.4419 460.4463,244.5913 Q459.8071,244.7407 459.1016,244.7407 Q456.5947,244.7407 455.2749,243.0889 Q453.9551,241.437 453.9551,238.3159 Q453.9551,235.1865 455.2749,233.5347 Q456.5947,231.8828 459.1016,231.8828 Q459.8071,231.8828 460.4546,232.0322 Q461.1021,232.1816 461.6665,232.4805 L461.6665,235.2031 Q461.0356,234.6221 460.4421,234.3523 Q459.8486,234.0825 459.2178,234.0825 Q457.873,234.0825 457.1882,235.1492 Q456.5034,236.2158 456.5034,238.3159 Q456.5034,240.4077 457.1882,241.4744 Q457.873,242.541 459.2178,242.541 Q459.8486,242.541 460.4421,242.2712 Q461.0356,242.0015 461.6665,241.4204 Z " fill="#000000"/><text fill="#000000" font-family="sans-serif" font-size="14" lengthAdjust="spacing" textLength="99.0254" x="479.6934" y="243.291">InfoImplement</text><line style="stroke:#181818;stroke-width:0.5;" x1="377" x2="648.9121" y1="254" y2="254"/><line style="stroke:#181818;stroke-width:0.5;" x1="377" x2="648.9121" y1="262" y2="262"/><ellipse cx="387" cy="275.7441" fill="#84BE84" rx="3" ry="3" style="stroke:#038048;stroke-width:1.0;"/><text fill="#000000" font-family="sans-serif" font-size="14" lengthAdjust="spacing" textLength="148.4902" x="396" y="279.5352">InfoImplement(JPanel)</text><ellipse cx="387" cy="292.2324" fill="#84BE84" rx="3" ry="3" style="stroke:#038048;stroke-width:1.0;"/><text fill="#000000" font-family="sans-serif" font-size="14" lengthAdjust="spacing" textLength="216.6104" x="396" y="296.0234">showInfo(Graphics, String): void</text><ellipse cx="387" cy="308.7207" fill="#84BE84" rx="3" ry="3" style="stroke:#038048;stroke-width:1.0;"/><text fill="#000000" font-family="sans-serif" font-size="14" lengthAdjust="spacing" textLength="247.9121" x="396" y="312.5117">fillAction(Graphics, GameState): void</text><ellipse cx="387" cy="325.209" fill="#84BE84" rx="3" ry="3" style="stroke:#038048;stroke-width:1.0;"/><text fill="#000000" font-family="sans-serif" font-size="14" lengthAdjust="spacing" textLength="213.9375" x="396" y="329">locationMatch(GameState): void</text><ellipse cx="387" cy="341.6973" fill="#84BE84" rx="3" ry="3" style="stroke:#038048;stroke-width:1.0;"/><text fill="#000000" font-family="sans-serif" font-size="14" lengthAdjust="spacing" text-decoration="underline" textLength="176.3057" x="396" y="345.4883">unvisiableTextArea(): void</text></g></a><!--class WinLoseImplement--><a href="WinLoseImplement.html" target="_top" title="WinLoseImplement.html" xlink:actuate="onRequest" xlink:href="WinLoseImplement.html" xlink:show="new" xlink:title="WinLoseImplement.html" xlink:type="simple"><g id="elem_WinLoseImplement"><rect codeLine="45" fill="#F1F1F1" height="113.9531" id="WinLoseImplement" rx="2.5" ry="2.5" style="stroke:#181818;stroke-width:0.5;" width="351.2129" x="668.5" y="230"/><ellipse cx="775.7217" cy="246" fill="#ADD1B2" rx="11" ry="11" style="stroke:#181818;stroke-width:1.0;"/><path d="M778.1948,252.1431 Q777.6138,252.4419 776.9746,252.5913 Q776.3354,252.7407 775.6299,252.7407 Q773.123,252.7407 771.8032,251.0889 Q770.4834,249.437 770.4834,246.3159 Q770.4834,243.1865 771.8032,241.5347 Q773.123,239.8828 775.6299,239.8828 Q776.3354,239.8828 776.9829,240.0322 Q777.6304,240.1816 778.1948,240.4805 L778.1948,243.2031 Q777.564,242.6221 776.9705,242.3523 Q776.377,242.0825 775.7461,242.0825 Q774.4014,242.0825 773.7166,243.1492 Q773.0317,244.2158 773.0317,246.3159 Q773.0317,248.4077 773.7166,249.4744 Q774.4014,250.541 775.7461,250.541 Q776.377,250.541 776.9705,250.2712 Q777.564,250.0015 778.1948,249.4204 Z " fill="#000000"/><text fill="#000000" font-family="sans-serif" font-size="14" lengthAdjust="spacing" textLength="128.2695" x="796.2217" y="251.291">WinLoseImplement</text><line style="stroke:#181818;stroke-width:0.5;" x1="669.5" x2="1018.7129" y1="262" y2="262"/><line style="stroke:#181818;stroke-width:0.5;" x1="669.5" x2="1018.7129" y1="270" y2="270"/><ellipse cx="679.5" cy="283.7441" fill="#84BE84" rx="3" ry="3" style="stroke:#038048;stroke-width:1.0;"/><text fill="#000000" font-family="sans-serif" font-size="14" lengthAdjust="spacing" textLength="325.2129" x="688.5" y="287.5352">drawWinLose(GameState, Graphics, JPanel): void</text><ellipse cx="679.5" cy="300.2324" fill="#84BE84" rx="3" ry="3" style="stroke:#038048;stroke-width:1.0;"/><text fill="#000000" font-family="sans-serif" font-size="14" lengthAdjust="spacing" text-decoration="underline" textLength="153.6445" x="688.5" y="304.0234">playMusic(String): void</text><ellipse cx="679.5" cy="316.7207" fill="#84BE84" rx="3" ry="3" style="stroke:#038048;stroke-width:1.0;"/><text fill="#000000" font-family="sans-serif" font-size="14" lengthAdjust="spacing" text-decoration="underline" textLength="217.3008" x="688.5" y="320.5117">allMusicPlayed(GameState): void</text><ellipse cx="679.5" cy="333.209" fill="#84BE84" rx="3" ry="3" style="stroke:#038048;stroke-width:1.0;"/><text fill="#000000" font-family="sans-serif" font-size="14" lengthAdjust="spacing" text-decoration="underline" textLength="135.7412" x="688.5" y="337">mute(boolean): void</text></g></a><!--class BackgroundSoundImplement--><a href="BackgroundSoundImplement.html" target="_top" title="BackgroundSoundImplement.html" xlink:actuate="onRequest" xlink:href="BackgroundSoundImplement.html" xlink:show="new" xlink:title="BackgroundSoundImplement.html" xlink:type="simple"><g id="elem_BackgroundSoundImplement"><rect codeLine="52" fill="#F1F1F1" height="130.4414" id="BackgroundSoundImplement" rx="2.5" ry="2.5" style="stroke:#181818;stroke-width:0.5;" width="227.2686" x="76.5" y="413"/><ellipse cx="91.5" cy="429" fill="#ADD1B2" rx="11" ry="11" style="stroke:#181818;stroke-width:1.0;"/><path d="M93.9731,435.1431 Q93.3921,435.4419 92.7529,435.5913 Q92.1138,435.7407 91.4082,435.7407 Q88.9014,435.7407 87.5815,434.0889 Q86.2617,432.437 86.2617,429.3159 Q86.2617,426.1865 87.5815,424.5347 Q88.9014,422.8828 91.4082,422.8828 Q92.1138,422.8828 92.7612,423.0322 Q93.4087,423.1816 93.9731,423.4805 L93.9731,426.2031 Q93.3423,425.6221 92.7488,425.3523 Q92.1553,425.0825 91.5244,425.0825 Q90.1797,425.0825 89.4949,426.1492 Q88.8101,427.2158 88.8101,429.3159 Q88.8101,431.4077 89.4949,432.4744 Q90.1797,433.541 91.5244,433.541 Q92.1553,433.541 92.7488,433.2712 Q93.3423,433.0015 93.9731,432.4204 Z " fill="#000000"/><text fill="#000000" font-family="sans-serif" font-size="14" lengthAdjust="spacing" textLength="195.2686" x="105.5" y="434.291">BackgroundSoundImplement</text><line style="stroke:#181818;stroke-width:0.5;" x1="77.5" x2="302.7686" y1="445" y2="445"/><ellipse cx="87.5" cy="458.7441" fill="none" rx="3" ry="3" style="stroke:#038048;stroke-width:1.0;"/><text fill="#000000" font-family="sans-serif" font-size="14" lengthAdjust="spacing" text-decoration="underline" textLength="89.9951" x="96.5" y="462.5352">status: String</text><line style="stroke:#181818;stroke-width:0.5;" x1="77.5" x2="302.7686" y1="469.4883" y2="469.4883"/><ellipse cx="87.5" cy="483.2324" fill="#84BE84" rx="3" ry="3" style="stroke:#038048;stroke-width:1.0;"/><text fill="#000000" font-family="sans-serif" font-size="14" lengthAdjust="spacing" text-decoration="underline" textLength="113.6748" x="96.5" y="487.0234">playMusic(): void</text><ellipse cx="87.5" cy="499.7207" fill="#84BE84" rx="3" ry="3" style="stroke:#038048;stroke-width:1.0;"/><text fill="#000000" font-family="sans-serif" font-size="14" lengthAdjust="spacing" text-decoration="underline" textLength="174.8428" x="96.5" y="503.5117">muteMusic(boolean): void</text><ellipse cx="87.5" cy="516.209" fill="#84BE84" rx="3" ry="3" style="stroke:#038048;stroke-width:1.0;"/><text fill="#000000" font-family="sans-serif" font-size="14" lengthAdjust="spacing" text-decoration="underline" textLength="135.7412" x="96.5" y="520">mute(boolean): void</text><ellipse cx="87.5" cy="532.6973" fill="#84BE84" rx="3" ry="3" style="stroke:#038048;stroke-width:1.0;"/><text fill="#000000" font-family="sans-serif" font-size="14" lengthAdjust="spacing" text-decoration="underline" textLength="135.8438" x="96.5" y="536.4883">getMuted(): Boolean</text></g></a><text fill="#888888" font-family="sans-serif" font-size="10" lengthAdjust="spacing" textLength="3.1641" x="507.918" y="562.668">&#160;</text><text fill="#888888" font-family="sans-serif" font-size="10" lengthAdjust="spacing" textLength="236.626" x="391.187" y="574.4453">UMLDoclet 2.2.1-SNAPSHOT, PlantUML 1.2024.7</text><!--SRC=[hLRRZjem47tVht0VAcL56gb8VK5LAzXIIWKiKgWgTRkg1cS8LXqxYXtOY_Ztsk6MG1A2r3oOP7B6dZbdCWCXXBo94mWZ81oUPQg9Yb23W1lpXYWqpnX30becfDEvoQmnqByG8X4l7b1l7MhXgJMATlk3nwcNe0Wm8QzRhBqe1wM8BrCHz1SBf7eOnHmZ59eyF9IPlQME-EEZsOFahbUbGJEw8IrbVHnV9qo4jnsoaYoeG4QfHcSk9KSGPSWM0br-PPntgMPIE0E8q3VEw98x6_N7pvzAtHObBgL0BYbOs1WqNLPZDqUsKAGH6KQXuSQibwWOJlnPTtBNFpqLWc5aD7BgwKbGiHVS8hFL9KpeR36EcQMuSOX6fL0TkIzYDgUYzqofX8cLAwzvYRKypzRy75cQKYj8O6st7MHWv_iK17AN31A8buog6hwtWMPvv6Ci6YxACEuE-d_yuQz-nv9NWShOos-xYtFFuy5-dblsNkNhiogreul6ICqOnwkyJ5NBvBg3xiMkXBPLSQoX1huz-NHbMYDGs2p0Sv75GXOqpZzNL601izUh255BkROmPn-8IwfxKw5r7F3_fOaKYoqLAwOOp3dEy4bt4mJd8a4_cHX9LVWEJaqLD5bbTj0oQLnogFIQa6CpWiQfOhHHRmVEC_3KU67Gb9QwYL3Jllpg7kOtQ6IvsMLkKjNPLSX58YudiyNLpBZcqx3GgSO67DZpUrk7KvOssKfDocRQBwIqFx_5Z_7eYwJS_6zeUstl_Jj_qftwt-vdBZ4o2MrUaxShy_tQyh_z1m00]--></g></svg>