<svg xmlns="http://www.w3.org/2000/svg" xmlns:xlink="http://www.w3.org/1999/xlink" contentStyleType="text/css" height="660px" preserveAspectRatio="none" style="width:470px;height:660px;background:#FFFFFF;" version="1.1" viewBox="0 0 470 660" width="470px" zoomAndPan="magnify"><defs/><g><!--class nz.ac.wgtn.swen225.lc.app.App--><a href="App.html" target="_top" title="App.html" xlink:actuate="onRequest" xlink:href="App.html" xlink:show="new" xlink:title="App.html" xlink:type="simple"><g id="elem_nz.ac.wgtn.swen225.lc.app.App"><rect codeLine="7" fill="#F1F1F1" height="441.9844" id="nz.ac.wgtn.swen225.lc.app.App" rx="2.5" ry="2.5" style="stroke:#181818;stroke-width:0.5;" width="287.8096" x="97" y="193"/><ellipse cx="170.6733" cy="212.1328" fill="#ADD1B2" rx="11" ry="11" style="stroke:#181818;stroke-width:1.0;"/><path d="M173.1465,218.2759 Q172.5654,218.5747 171.9263,218.7241 Q171.2871,218.8735 170.5815,218.8735 Q168.0747,218.8735 166.7549,217.2217 Q165.4351,215.5698 165.4351,212.4487 Q165.4351,209.3193 166.7549,207.6675 Q168.0747,206.0156 170.5815,206.0156 Q171.2871,206.0156 171.9346,206.165 Q172.582,206.3145 173.1465,206.6133 L173.1465,209.3359 Q172.5156,208.7549 171.9221,208.4851 Q171.3286,208.2153 170.6978,208.2153 Q169.353,208.2153 168.6682,209.282 Q167.9834,210.3486 167.9834,212.4487 Q167.9834,214.5405 168.6682,215.6072 Q169.353,216.6738 170.6978,216.6738 Q171.3286,216.6738 171.9221,216.4041 Q172.5156,216.1343 173.1465,215.5532 Z " fill="#000000"/><text fill="#000000" font-family="sans-serif" font-size="14" lengthAdjust="spacing" textLength="27.2822" x="243.5137" y="211.5352">App</text><text fill="#000000" font-family="sans-serif" font-size="10" lengthAdjust="spacing" textLength="131.9629" x="191.1733" y="224.1563">nz.ac.wgtn.swen225.lc.app</text><line style="stroke:#181818;stroke-width:0.5;" x1="98" x2="383.8096" y1="231.2656" y2="231.2656"/><ellipse cx="108" cy="245.0098" fill="#84BE84" rx="3" ry="3" style="stroke:#038048;stroke-width:1.0;"/><text fill="#000000" font-family="sans-serif" font-size="14" lengthAdjust="spacing" textLength="36.3877" x="117" y="248.8008">App()</text><ellipse cx="108" cy="261.498" fill="#84BE84" rx="3" ry="3" style="stroke:#038048;stroke-width:1.0;"/><text fill="#000000" font-family="sans-serif" font-size="14" lengthAdjust="spacing" textLength="104.5488" x="117" y="265.2891">App(Controller)</text><ellipse cx="108" cy="277.9863" fill="#84BE84" rx="3" ry="3" style="stroke:#038048;stroke-width:1.0;"/><text fill="#000000" font-family="sans-serif" font-size="14" lengthAdjust="spacing" textLength="165.4775" x="117" y="281.7773">makePanel(): GamePanel</text><ellipse cx="108" cy="294.4746" fill="#84BE84" rx="3" ry="3" style="stroke:#038048;stroke-width:1.0;"/><text fill="#000000" font-family="sans-serif" font-size="14" lengthAdjust="spacing" textLength="183.6338" x="117" y="298.2656">startTick(GameBoard): void</text><ellipse cx="108" cy="310.9629" fill="#84BE84" rx="3" ry="3" style="stroke:#038048;stroke-width:1.0;"/><text fill="#000000" font-family="sans-serif" font-size="14" lengthAdjust="spacing" textLength="71.3057" x="117" y="314.7539">tick(): void</text><ellipse cx="108" cy="327.4512" fill="#84BE84" rx="3" ry="3" style="stroke:#038048;stroke-width:1.0;"/><text fill="#000000" font-family="sans-serif" font-size="14" lengthAdjust="spacing" text-decoration="underline" textLength="261.8096" x="117" y="331.2422">saveInputs(List&lt;Command&gt;, int): void</text><ellipse cx="108" cy="343.9395" fill="#84BE84" rx="3" ry="3" style="stroke:#038048;stroke-width:1.0;"/><text fill="#000000" font-family="sans-serif" font-size="14" lengthAdjust="spacing" text-decoration="underline" textLength="174.46" x="117" y="347.7305">muteGame(boolean): void</text><ellipse cx="108" cy="360.4277" fill="#84BE84" rx="3" ry="3" style="stroke:#038048;stroke-width:1.0;"/><text fill="#000000" font-family="sans-serif" font-size="14" lengthAdjust="spacing" textLength="153.1797" x="117" y="364.2188">updateGraphics(): void</text><ellipse cx="108" cy="376.916" fill="#84BE84" rx="3" ry="3" style="stroke:#038048;stroke-width:1.0;"/><text fill="#000000" font-family="sans-serif" font-size="14" lengthAdjust="spacing" textLength="179.6074" x="117" y="380.707">giveInput(Command): void</text><ellipse cx="108" cy="393.4043" fill="#84BE84" rx="3" ry="3" style="stroke:#038048;stroke-width:1.0;"/><text fill="#000000" font-family="sans-serif" font-size="14" lengthAdjust="spacing" textLength="160.7197" x="117" y="397.1953">initialStateRevert(): void</text><ellipse cx="108" cy="409.8926" fill="#84BE84" rx="3" ry="3" style="stroke:#038048;stroke-width:1.0;"/><text fill="#000000" font-family="sans-serif" font-size="14" lengthAdjust="spacing" textLength="180.6123" x="117" y="413.6836">pauseTimer(boolean): void</text><ellipse cx="108" cy="426.3809" fill="#84BE84" rx="3" ry="3" style="stroke:#038048;stroke-width:1.0;"/><text fill="#000000" font-family="sans-serif" font-size="14" lengthAdjust="spacing" textLength="115.2334" x="117" y="430.1719">openFile(): String</text><ellipse cx="108" cy="442.8691" fill="#84BE84" rx="3" ry="3" style="stroke:#038048;stroke-width:1.0;"/><text fill="#000000" font-family="sans-serif" font-size="14" lengthAdjust="spacing" textLength="111.248" x="117" y="446.6602">saveFile(): String</text><ellipse cx="108" cy="459.3574" fill="#84BE84" rx="3" ry="3" style="stroke:#038048;stroke-width:1.0;"/><text fill="#000000" font-family="sans-serif" font-size="14" lengthAdjust="spacing" textLength="80.4385" x="117" y="463.1484">ui(): UIPanel</text><ellipse cx="108" cy="475.8457" fill="#84BE84" rx="3" ry="3" style="stroke:#038048;stroke-width:1.0;"/><text fill="#000000" font-family="sans-serif" font-size="14" lengthAdjust="spacing" textLength="130.0195" x="117" y="479.6367">game(): GamePanel</text><ellipse cx="108" cy="492.334" fill="#84BE84" rx="3" ry="3" style="stroke:#038048;stroke-width:1.0;"/><text fill="#000000" font-family="sans-serif" font-size="14" lengthAdjust="spacing" textLength="146.5557" x="117" y="496.125">domain(): GameBoard</text><ellipse cx="108" cy="508.8223" fill="#84BE84" rx="3" ry="3" style="stroke:#038048;stroke-width:1.0;"/><text fill="#000000" font-family="sans-serif" font-size="14" lengthAdjust="spacing" textLength="186.0742" x="117" y="512.6133">initialDomain(): GameBoard</text><ellipse cx="108" cy="525.3105" fill="#84BE84" rx="3" ry="3" style="stroke:#038048;stroke-width:1.0;"/><text fill="#000000" font-family="sans-serif" font-size="14" lengthAdjust="spacing" textLength="151.7715" x="117" y="529.1016">controller(): Controller</text><ellipse cx="108" cy="541.7988" fill="#84BE84" rx="3" ry="3" style="stroke:#038048;stroke-width:1.0;"/><text fill="#000000" font-family="sans-serif" font-size="14" lengthAdjust="spacing" textLength="135.8232" x="117" y="545.5898">recorder(): Recorder</text><ellipse cx="108" cy="558.2871" fill="#84BE84" rx="3" ry="3" style="stroke:#038048;stroke-width:1.0;"/><text fill="#000000" font-family="sans-serif" font-size="14" lengthAdjust="spacing" textLength="132.0635" x="117" y="562.0781">timer(): GameTimer</text><ellipse cx="108" cy="574.7754" fill="#84BE84" rx="3" ry="3" style="stroke:#038048;stroke-width:1.0;"/><text fill="#000000" font-family="sans-serif" font-size="14" lengthAdjust="spacing" textLength="176.4424" x="117" y="578.5664">render(): ImageImplement</text><ellipse cx="108" cy="591.2637" fill="#84BE84" rx="3" ry="3" style="stroke:#038048;stroke-width:1.0;"/><text fill="#000000" font-family="sans-serif" font-size="14" lengthAdjust="spacing" textLength="186.2861" x="117" y="595.0547">gameLoader(): GameLoader</text><ellipse cx="108" cy="607.752" fill="#84BE84" rx="3" ry="3" style="stroke:#038048;stroke-width:1.0;"/><text fill="#000000" font-family="sans-serif" font-size="14" lengthAdjust="spacing" textLength="175.2598" x="117" y="611.543">domain(GameBoard): void</text><ellipse cx="108" cy="624.2402" fill="#84BE84" rx="3" ry="3" style="stroke:#038048;stroke-width:1.0;"/><text fill="#000000" font-family="sans-serif" font-size="14" lengthAdjust="spacing" textLength="214.7783" x="117" y="628.0313">initialDomain(GameBoard): void</text></g></a><!--class nz.ac.wgtn.swen225.lc.app.UI.Containers.AppFrame--><g id="elem_nz.ac.wgtn.swen225.lc.app.UI.Containers.AppFrame"><rect codeLine="34" fill="#F1F1F1" height="38.2656" id="nz.ac.wgtn.swen225.lc.app.UI.Containers.AppFrame" rx="2.5" ry="2.5" style="stroke:#181818;stroke-width:0.5;" width="232.4883" x="6" y="65.5"/><ellipse cx="21" cy="84.6328" fill="#ADD1B2" rx="11" ry="11" style="stroke:#181818;stroke-width:1.0;"/><path d="M23.4731,90.7759 Q22.8921,91.0747 22.2529,91.2241 Q21.6138,91.3735 20.9082,91.3735 Q18.4014,91.3735 17.0815,89.7217 Q15.7617,88.0698 15.7617,84.9487 Q15.7617,81.8193 17.0815,80.1675 Q18.4014,78.5156 20.9082,78.5156 Q21.6138,78.5156 22.2612,78.665 Q22.9087,78.8145 23.4731,79.1133 L23.4731,81.8359 Q22.8423,81.2549 22.2488,80.9851 Q21.6553,80.7153 21.0244,80.7153 Q19.6797,80.7153 18.9949,81.782 Q18.3101,82.8486 18.3101,84.9487 Q18.3101,87.0405 18.9949,88.1072 Q19.6797,89.1738 21.0244,89.1738 Q21.6553,89.1738 22.2488,88.9041 Q22.8423,88.6343 23.4731,88.0532 Z " fill="#000000"/><text fill="#000000" font-family="sans-serif" font-size="14" lengthAdjust="spacing" textLength="69.1182" x="100.6851" y="84.0352">AppFrame</text><text fill="#000000" font-family="sans-serif" font-size="10" lengthAdjust="spacing" textLength="200.4883" x="35" y="96.6563">nz.ac.wgtn.swen225.lc.app.UI.Containers</text></g><!--class nz.ac.wgtn.swen225.lc.app.AppInterface--><a href="AppInterface.html" target="_top" title="AppInterface.html" xlink:actuate="onRequest" xlink:href="AppInterface.html" xlink:show="new" xlink:title="AppInterface.html" xlink:type="simple"><g id="elem_nz.ac.wgtn.swen225.lc.app.AppInterface"><rect codeLine="35" fill="#F1F1F1" height="145.1953" id="nz.ac.wgtn.swen225.lc.app.AppInterface" rx="2.5" ry="2.5" style="stroke:#181818;stroke-width:0.5;" width="206.6123" x="256.5" y="12"/><ellipse cx="290.6922" cy="31.1328" fill="#B4A7E5" rx="11" ry="11" style="stroke:#181818;stroke-width:1.0;"/><path d="M287.12,27.3979 L287.12,25.2397 L294.4994,25.2397 L294.4994,27.3979 L292.034,27.3979 L292.034,35.4746 L294.4994,35.4746 L294.4994,37.6328 L287.12,37.6328 L287.12,35.4746 L289.5853,35.4746 L289.5853,27.3979 Z " fill="#000000"/><text fill="#000000" font-family="sans-serif" font-size="14" font-style="italic" lengthAdjust="spacing" textLength="86.6182" x="331.6295" y="30.5352">AppInterface</text><text fill="#000000" font-family="sans-serif" font-size="10" font-style="italic" lengthAdjust="spacing" textLength="131.9629" x="308.9572" y="43.1563">nz.ac.wgtn.swen225.lc.app</text><line style="stroke:#181818;stroke-width:0.5;" x1="257.5" x2="462.1123" y1="50.2656" y2="50.2656"/><ellipse cx="267.5" cy="64.0098" fill="#84BE84" rx="3" ry="3" style="stroke:#038048;stroke-width:1.0;"/><text fill="#000000" font-family="sans-serif" font-size="14" font-style="italic" lengthAdjust="spacing" textLength="153.1797" x="276.5" y="67.8008">updateGraphics(): void</text><ellipse cx="267.5" cy="80.498" fill="#84BE84" rx="3" ry="3" style="stroke:#038048;stroke-width:1.0;"/><text fill="#000000" font-family="sans-serif" font-size="14" font-style="italic" lengthAdjust="spacing" textLength="179.6074" x="276.5" y="84.2891">giveInput(Command): void</text><ellipse cx="267.5" cy="96.9863" fill="#84BE84" rx="3" ry="3" style="stroke:#038048;stroke-width:1.0;"/><text fill="#000000" font-family="sans-serif" font-size="14" font-style="italic" lengthAdjust="spacing" textLength="160.7197" x="276.5" y="100.7773">initialStateRevert(): void</text><ellipse cx="267.5" cy="113.4746" fill="#84BE84" rx="3" ry="3" style="stroke:#038048;stroke-width:1.0;"/><text fill="#000000" font-family="sans-serif" font-size="14" font-style="italic" lengthAdjust="spacing" textLength="180.6123" x="276.5" y="117.2656">pauseTimer(boolean): void</text><ellipse cx="267.5" cy="129.9629" fill="#84BE84" rx="3" ry="3" style="stroke:#038048;stroke-width:1.0;"/><text fill="#000000" font-family="sans-serif" font-size="14" font-style="italic" lengthAdjust="spacing" textLength="115.2334" x="276.5" y="133.7539">openFile(): String</text><ellipse cx="267.5" cy="146.4512" fill="#84BE84" rx="3" ry="3" style="stroke:#038048;stroke-width:1.0;"/><text fill="#000000" font-family="sans-serif" font-size="14" font-style="italic" lengthAdjust="spacing" textLength="111.248" x="276.5" y="150.2422">saveFile(): String</text></g></a><polygon fill="none" points="128.5675,103.5743,129.0754,122.5412,140.354,118.443,128.5675,103.5743" style="stroke:#181818;stroke-width:1.0;"/><path d="M134.7147,120.4921 C141.7067,139.7348 147.464,155.5796 160.9782,192.7721 " fill="none" style="stroke:#181818;stroke-width:1.0;"/><polygon fill="none" points="333.8849,157.3713,322.0985,172.24,333.377,176.3381,333.8849,157.3713" style="stroke:#181818;stroke-width:1.0;"/><path d="M327.7377,174.2891 C323.7011,185.3982 325.5086,180.4238 320.9893,192.8615 " fill="none" style="stroke:#181818;stroke-width:1.0;stroke-dasharray:7.0,7.0;"/><text fill="#888888" font-family="sans-serif" font-size="10" lengthAdjust="spacing" textLength="3.1641" x="229.668" y="638.668">&#160;</text><text fill="#888888" font-family="sans-serif" font-size="10" lengthAdjust="spacing" textLength="236.626" x="112.937" y="650.4453">UMLDoclet 2.2.1-SNAPSHOT, PlantUML 1.2024.7</text><!--SRC=[hLLBJzj04BxpAxP8bOmWgnAr5nH5eY1QIsaRaUG470PxugpObtRNGH3otxlhE8cDSP9AzI7EpFVDpCvhJGWXdxI1J03XyA9oHwn01nAEZZn4B3eYGQ3LaE08DHXmoX2f91RuZAL8K6ZtGgOCUMhVQxspcVBgGfzmi9OSzonxnOlph_rBhUzbANtforSA2NtEdAJs6MMt-utoX8BMnmGiQKMfzqBkxlmldJd17nx8eWWMdbElZKxgufMIpYZEqLG00Kyu18ayEhaWFtp2XR35hGFZnYnvYWBuNO59FN6kMBhbk02_rowyfGUMtWNCCPOwTpOQCEjwLqe8a6d_Z33fsir4xZ34Z1wLuWYo4JRNANYA0JrZYMqSu3HZPToeZDXWCCaS0pxo8V4MvsXSquk6tEAO2JIj1r4QvGtZ68n7pZ2PLUhdas_3SXQqa_XToREGzCVTI9K09jTWqOr6DjUxECbc1W9XEn5RXi54cNI5tvR_gwqMAoZuBgfIjPIbNImWmrXeZWAbgsSsK91kNQoaHeBjirPFyaFUidNdRepd7x9uT1BJK1mV0utTiuOrBbs7ASxW1npDrDyWzNF4Q_N_kGGsxbQtmKPiNWiBUBJEGEAMUzUdIjsxILNo0KjLfU_VhofxnwfLQIrRLqx6lxQIzDuwdTqjsEEtrgJU6wK7U4imM92fKk5rBoU_1jSguVwxrALTUjuP_RuSZdx-6P-H8GVfF4m- -sfRflpo_mK0]--></g></svg>