<svg xmlns="http://www.w3.org/2000/svg" xmlns:xlink="http://www.w3.org/1999/xlink" contentStyleType="text/css" height="822px" preserveAspectRatio="none" style="width:1239px;height:822px;background:#FFFFFF;" version="1.1" viewBox="0 0 1239 822" width="1239px" zoomAndPan="magnify"><defs/><g><!--cluster nz.ac.wgtn.swen225.lc.app--><g id="cluster_nz.ac.wgtn.swen225.lc.app"><path d="M330.5,111 L522.0107,111 A3.75,3.75 0 0 1 524.5107,113.5 L531.5107,133.4883 L1228.5,133.4883 A2.5,2.5 0 0 1 1231,135.9883 L1231,786.5 A2.5,2.5 0 0 1 1228.5,789 L330.5,789 A2.5,2.5 0 0 1 328,786.5 L328,113.5 A2.5,2.5 0 0 1 330.5,111 " fill="none" style="stroke:#000000;stroke-width:1.5;"/><line style="stroke:#000000;stroke-width:1.5;" x1="328" x2="531.5107" y1="133.4883" y2="133.4883"/><text fill="#000000" font-family="sans-serif" font-size="14" font-weight="bold" lengthAdjust="spacing" textLength="190.5107" x="332" y="126.5352">nz.ac.wgtn.swen225.lc.app</text></g><!--cluster java.lang--><g id="cluster_java.lang"><path d="M813.5,12 L878.6006,12 A3.75,3.75 0 0 1 881.1006,14.5 L888.1006,34.4883 L904.5,34.4883 A2.5,2.5 0 0 1 907,36.9883 L907,92.5 A2.5,2.5 0 0 1 904.5,95 L813.5,95 A2.5,2.5 0 0 1 811,92.5 L811,14.5 A2.5,2.5 0 0 1 813.5,12 " fill="none" style="stroke:#000000;stroke-width:1.5;"/><line style="stroke:#000000;stroke-width:1.5;" x1="811" x2="888.1006" y1="34.4883" y2="34.4883"/><text fill="#000000" font-family="sans-serif" font-size="14" font-weight="bold" lengthAdjust="spacing" textLength="64.1006" x="815" y="27.5352">java.lang</text></g><!--cluster javax.swing--><g id="cluster_javax.swing"><path d="M994.5,4 L1079.6367,4 A3.75,3.75 0 0 1 1082.1367,6.5 L1089.1367,26.4883 L1229.5,26.4883 A2.5,2.5 0 0 1 1232,28.9883 L1232,100.5 A2.5,2.5 0 0 1 1229.5,103 L994.5,103 A2.5,2.5 0 0 1 992,100.5 L992,6.5 A2.5,2.5 0 0 1 994.5,4 " fill="none" style="stroke:#000000;stroke-width:1.5;"/><line style="stroke:#000000;stroke-width:1.5;" x1="992" x2="1089.1367" y1="26.4883" y2="26.4883"/><text fill="#000000" font-family="sans-serif" font-size="14" font-weight="bold" lengthAdjust="spacing" textLength="84.1367" x="996" y="19.5352">javax.swing</text></g><!--cluster nz.ac.wgtn.swen225.lc.app.UI.Containers--><g id="cluster_nz.ac.wgtn.swen225.lc.app.UI.Containers"><path d="M16.5,168.5 L308.123,168.5 A3.75,3.75 0 0 1 310.623,171 L317.623,190.9883 L317.5,190.9883 A2.5,2.5 0 0 1 320,193.4883 L320,249 A2.5,2.5 0 0 1 317.5,251.5 L16.5,251.5 A2.5,2.5 0 0 1 14,249 L14,171 A2.5,2.5 0 0 1 16.5,168.5 " fill="none" style="stroke:#000000;stroke-width:1.5;"/><line style="stroke:#000000;stroke-width:1.5;" x1="14" x2="317.623" y1="190.9883" y2="190.9883"/><text fill="#000000" font-family="sans-serif" font-size="14" font-weight="bold" lengthAdjust="spacing" textLength="290.623" x="18" y="184.0352">nz.ac.wgtn.swen225.lc.app.UI.Containers</text></g><!--class GameLoader--><a href="GameLoader.html" target="_top" title="GameLoader.html" xlink:actuate="onRequest" xlink:href="GameLoader.html" xlink:show="new" xlink:title="GameLoader.html" xlink:type="simple"><g id="elem_GameLoader"><rect codeLine="6" fill="#F1F1F1" height="146.9297" id="GameLoader" rx="2.5" ry="2.5" style="stroke:#181818;stroke-width:0.5;" width="247.9287" x="735" y="146"/><ellipse cx="812.2871" cy="162" fill="#ADD1B2" rx="11" ry="11" style="stroke:#181818;stroke-width:1.0;"/><path d="M814.7603,168.1431 Q814.1792,168.4419 813.54,168.5913 Q812.9009,168.7407 812.1953,168.7407 Q809.6885,168.7407 808.3687,167.0889 Q807.0488,165.437 807.0488,162.3159 Q807.0488,159.1865 808.3687,157.5347 Q809.6885,155.8828 812.1953,155.8828 Q812.9009,155.8828 813.5483,156.0322 Q814.1958,156.1816 814.7603,156.4805 L814.7603,159.2031 Q814.1294,158.6221 813.5359,158.3523 Q812.9424,158.0825 812.3115,158.0825 Q810.9668,158.0825 810.282,159.1492 Q809.5972,160.2158 809.5972,162.3159 Q809.5972,164.4077 810.282,165.4744 Q810.9668,166.541 812.3115,166.541 Q812.9424,166.541 813.5359,166.2712 Q814.1294,166.0015 814.7603,165.4204 Z " fill="#000000"/><text fill="#000000" font-family="sans-serif" font-size="14" lengthAdjust="spacing" textLength="84.8545" x="832.7871" y="167.291">GameLoader</text><line style="stroke:#181818;stroke-width:0.5;" x1="736" x2="981.9287" y1="178" y2="178"/><line style="stroke:#181818;stroke-width:0.5;" x1="736" x2="981.9287" y1="186" y2="186"/><ellipse cx="746" cy="199.7441" fill="#84BE84" rx="3" ry="3" style="stroke:#038048;stroke-width:1.0;"/><text fill="#000000" font-family="sans-serif" font-size="14" lengthAdjust="spacing" textLength="121.2422" x="755" y="203.5352">GameLoader(App)</text><ellipse cx="746" cy="216.2324" fill="#84BE84" rx="3" ry="3" style="stroke:#038048;stroke-width:1.0;"/><text fill="#000000" font-family="sans-serif" font-size="14" lengthAdjust="spacing" textLength="106.1758" x="755" y="220.0234">loadSave(): void</text><ellipse cx="746" cy="232.7207" fill="#84BE84" rx="3" ry="3" style="stroke:#038048;stroke-width:1.0;"/><text fill="#000000" font-family="sans-serif" font-size="14" lengthAdjust="spacing" textLength="128.1875" x="755" y="236.5117">loadLevel(int): void</text><ellipse cx="746" cy="249.209" fill="#84BE84" rx="3" ry="3" style="stroke:#038048;stroke-width:1.0;"/><text fill="#000000" font-family="sans-serif" font-size="14" lengthAdjust="spacing" textLength="187.8584" x="755" y="253">loadLevel(GameBoard): void</text><ellipse cx="746" cy="265.6973" fill="#84BE84" rx="3" ry="3" style="stroke:#038048;stroke-width:1.0;"/><text fill="#000000" font-family="sans-serif" font-size="14" lengthAdjust="spacing" textLength="221.9287" x="755" y="269.4883">loadRecording(GameBoard): void</text><ellipse cx="746" cy="282.1855" fill="#84BE84" rx="3" ry="3" style="stroke:#038048;stroke-width:1.0;"/><text fill="#000000" font-family="sans-serif" font-size="14" lengthAdjust="spacing" textLength="70.6016" x="755" y="285.9766">app(): App</text></g></a><!--class GameTimer--><a href="GameTimer.html" target="_top" title="GameTimer.html" xlink:actuate="onRequest" xlink:href="GameTimer.html" xlink:show="new" xlink:title="GameTimer.html" xlink:type="simple"><g id="elem_GameTimer"><rect codeLine="15" fill="#F1F1F1" height="130.4414" id="GameTimer" rx="2.5" ry="2.5" style="stroke:#181818;stroke-width:0.5;" width="222.4717" x="1001" y="154.5"/><ellipse cx="1068.8774" cy="170.5" fill="#ADD1B2" rx="11" ry="11" style="stroke:#181818;stroke-width:1.0;"/><path d="M1071.3506,176.6431 Q1070.7695,176.9419 1070.1304,177.0913 Q1069.4912,177.2407 1068.7856,177.2407 Q1066.2788,177.2407 1064.959,175.5889 Q1063.6392,173.937 1063.6392,170.8159 Q1063.6392,167.6865 1064.959,166.0347 Q1066.2788,164.3828 1068.7856,164.3828 Q1069.4912,164.3828 1070.1387,164.5322 Q1070.7861,164.6816 1071.3506,164.9805 L1071.3506,167.7031 Q1070.7197,167.1221 1070.1262,166.8523 Q1069.5327,166.5825 1068.9019,166.5825 Q1067.5571,166.5825 1066.8723,167.6492 Q1066.1875,168.7158 1066.1875,170.8159 Q1066.1875,172.9077 1066.8723,173.9744 Q1067.5571,175.041 1068.9019,175.041 Q1069.5327,175.041 1070.1262,174.7712 Q1070.7197,174.5015 1071.3506,173.9204 Z " fill="#000000"/><text fill="#000000" font-family="sans-serif" font-size="14" lengthAdjust="spacing" textLength="78.2168" x="1089.3774" y="175.791">GameTimer</text><line style="stroke:#181818;stroke-width:0.5;" x1="1002" x2="1222.4717" y1="186.5" y2="186.5"/><ellipse cx="1012" cy="200.2441" fill="none" rx="3" ry="3" style="stroke:#038048;stroke-width:1.0;"/><text fill="#000000" font-family="sans-serif" font-size="14" lengthAdjust="spacing" text-decoration="underline" textLength="100.4951" x="1021" y="204.0352">TICK_RATE: int</text><ellipse cx="1012" cy="216.7324" fill="none" rx="3" ry="3" style="stroke:#038048;stroke-width:1.0;"/><text fill="#000000" font-family="sans-serif" font-size="14" lengthAdjust="spacing" text-decoration="underline" textLength="109.0195" x="1021" y="220.5234">INPUT_WAIT: int</text><ellipse cx="1012" cy="233.2207" fill="none" rx="3" ry="3" style="stroke:#038048;stroke-width:1.0;"/><text fill="#000000" font-family="sans-serif" font-size="14" lengthAdjust="spacing" text-decoration="underline" textLength="170.0371" x="1021" y="237.0117">stageCountdown: double</text><line style="stroke:#181818;stroke-width:0.5;" x1="1002" x2="1222.4717" y1="243.9648" y2="243.9648"/><ellipse cx="1012" cy="257.709" fill="#84BE84" rx="3" ry="3" style="stroke:#038048;stroke-width:1.0;"/><text fill="#000000" font-family="sans-serif" font-size="14" lengthAdjust="spacing" textLength="150.6299" x="1021" y="261.5">GameTimer(Runnable)</text><ellipse cx="1012" cy="274.1973" fill="#84BE84" rx="3" ry="3" style="stroke:#038048;stroke-width:1.0;"/><text fill="#000000" font-family="sans-serif" font-size="14" lengthAdjust="spacing" textLength="196.4717" x="1021" y="277.9883">runEvent(Runnable, int): void</text></g></a><!--class Main--><a href="Main.html" target="_top" title="Main.html" xlink:actuate="onRequest" xlink:href="Main.html" xlink:show="new" xlink:title="Main.html" xlink:type="simple"><g id="elem_Main"><rect codeLine="23" fill="#F1F1F1" height="64.4883" id="Main" rx="2.5" ry="2.5" style="stroke:#181818;stroke-width:0.5;" width="155.2813" x="561.5" y="187.5"/><ellipse cx="618.6279" cy="203.5" fill="#ADD1B2" rx="11" ry="11" style="stroke:#181818;stroke-width:1.0;"/><path d="M621.1011,209.6431 Q620.52,209.9419 619.8809,210.0913 Q619.2417,210.2407 618.5361,210.2407 Q616.0293,210.2407 614.7095,208.5889 Q613.3896,206.937 613.3896,203.8159 Q613.3896,200.6865 614.7095,199.0347 Q616.0293,197.3828 618.5361,197.3828 Q619.2417,197.3828 619.8892,197.5322 Q620.5366,197.6816 621.1011,197.9805 L621.1011,200.7031 Q620.4702,200.1221 619.8767,199.8523 Q619.2832,199.5825 618.6523,199.5825 Q617.3076,199.5825 616.6228,200.6492 Q615.938,201.7158 615.938,203.8159 Q615.938,205.9077 616.6228,206.9744 Q617.3076,208.041 618.6523,208.041 Q619.2832,208.041 619.8767,207.7712 Q620.4702,207.5015 621.1011,206.9204 Z " fill="#000000"/><text fill="#000000" font-family="sans-serif" font-size="14" lengthAdjust="spacing" textLength="32.5254" x="639.1279" y="208.791">Main</text><line style="stroke:#181818;stroke-width:0.5;" x1="562.5" x2="715.7813" y1="219.5" y2="219.5"/><line style="stroke:#181818;stroke-width:0.5;" x1="562.5" x2="715.7813" y1="227.5" y2="227.5"/><ellipse cx="572.5" cy="241.2441" fill="#84BE84" rx="3" ry="3" style="stroke:#038048;stroke-width:1.0;"/><text fill="#000000" font-family="sans-serif" font-size="14" lengthAdjust="spacing" text-decoration="underline" textLength="129.2813" x="581.5" y="245.0352">main(String[]): void</text></g></a><!--class AppInterface--><a href="AppInterface.html" target="_top" title="AppInterface.html" xlink:actuate="onRequest" xlink:href="AppInterface.html" xlink:show="new" xlink:title="AppInterface.html" xlink:type="simple"><g id="elem_AppInterface"><rect codeLine="27" fill="#F1F1F1" height="163.418" id="AppInterface" rx="2.5" ry="2.5" style="stroke:#181818;stroke-width:0.5;" width="206.6123" x="336.5" y="138"/><ellipse cx="392.2471" cy="154" fill="#B4A7E5" rx="11" ry="11" style="stroke:#181818;stroke-width:1.0;"/><path d="M388.6748,150.2651 L388.6748,148.1069 L396.0542,148.1069 L396.0542,150.2651 L393.5889,150.2651 L393.5889,158.3418 L396.0542,158.3418 L396.0542,160.5 L388.6748,160.5 L388.6748,158.3418 L391.1401,158.3418 L391.1401,150.2651 Z " fill="#000000"/><text fill="#000000" font-family="sans-serif" font-size="14" font-style="italic" lengthAdjust="spacing" textLength="86.6182" x="412.7471" y="159.291">AppInterface</text><line style="stroke:#181818;stroke-width:0.5;" x1="337.5" x2="542.1123" y1="170" y2="170"/><ellipse cx="347.5" cy="183.7441" fill="none" rx="3" ry="3" style="stroke:#038048;stroke-width:1.0;"/><text fill="#000000" font-family="sans-serif" font-size="14" lengthAdjust="spacing" text-decoration="underline" textLength="100.4951" x="356.5" y="187.5352">TICK_RATE: int</text><line style="stroke:#181818;stroke-width:0.5;" x1="337.5" x2="542.1123" y1="194.4883" y2="194.4883"/><ellipse cx="347.5" cy="208.2324" fill="#84BE84" rx="3" ry="3" style="stroke:#038048;stroke-width:1.0;"/><text fill="#000000" font-family="sans-serif" font-size="14" font-style="italic" lengthAdjust="spacing" textLength="153.1797" x="356.5" y="212.0234">updateGraphics(): void</text><ellipse cx="347.5" cy="224.7207" fill="#84BE84" rx="3" ry="3" style="stroke:#038048;stroke-width:1.0;"/><text fill="#000000" font-family="sans-serif" font-size="14" font-style="italic" lengthAdjust="spacing" textLength="179.6074" x="356.5" y="228.5117">giveInput(Command): void</text><ellipse cx="347.5" cy="241.209" fill="#84BE84" rx="3" ry="3" style="stroke:#038048;stroke-width:1.0;"/><text fill="#000000" font-family="sans-serif" font-size="14" font-style="italic" lengthAdjust="spacing" textLength="160.7197" x="356.5" y="245">initialStateRevert(): void</text><ellipse cx="347.5" cy="257.6973" fill="#84BE84" rx="3" ry="3" style="stroke:#038048;stroke-width:1.0;"/><text fill="#000000" font-family="sans-serif" font-size="14" font-style="italic" lengthAdjust="spacing" textLength="180.6123" x="356.5" y="261.4883">pauseTimer(boolean): void</text><ellipse cx="347.5" cy="274.1855" fill="#84BE84" rx="3" ry="3" style="stroke:#038048;stroke-width:1.0;"/><text fill="#000000" font-family="sans-serif" font-size="14" font-style="italic" lengthAdjust="spacing" textLength="115.2334" x="356.5" y="277.9766">openFile(): String</text><ellipse cx="347.5" cy="290.6738" fill="#84BE84" rx="3" ry="3" style="stroke:#038048;stroke-width:1.0;"/><text fill="#000000" font-family="sans-serif" font-size="14" font-style="italic" lengthAdjust="spacing" textLength="111.248" x="356.5" y="294.4648">saveFile(): String</text></g></a><!--class App--><a href="App.html" target="_top" title="App.html" xlink:actuate="onRequest" xlink:href="App.html" xlink:show="new" xlink:title="App.html" xlink:type="simple"><g id="elem_App"><rect codeLine="37" fill="#F1F1F1" height="443.7188" id="App" rx="2.5" ry="2.5" style="stroke:#181818;stroke-width:0.5;" width="287.8096" x="336" y="337"/><ellipse cx="462.0137" cy="353" fill="#ADD1B2" rx="11" ry="11" style="stroke:#181818;stroke-width:1.0;"/><path d="M464.4868,359.1431 Q463.9058,359.4419 463.2666,359.5913 Q462.6274,359.7407 461.9219,359.7407 Q459.415,359.7407 458.0952,358.0889 Q456.7754,356.437 456.7754,353.3159 Q456.7754,350.1865 458.0952,348.5347 Q459.415,346.8828 461.9219,346.8828 Q462.6274,346.8828 463.2749,347.0322 Q463.9224,347.1816 464.4868,347.4805 L464.4868,350.2031 Q463.856,349.6221 463.2625,349.3523 Q462.6689,349.0825 462.0381,349.0825 Q460.6934,349.0825 460.0085,350.1492 Q459.3237,351.2158 459.3237,353.3159 Q459.3237,355.4077 460.0085,356.4744 Q460.6934,357.541 462.0381,357.541 Q462.6689,357.541 463.2625,357.2712 Q463.856,357.0015 464.4868,356.4204 Z " fill="#000000"/><text fill="#000000" font-family="sans-serif" font-size="14" lengthAdjust="spacing" textLength="27.2822" x="482.5137" y="358.291">App</text><line style="stroke:#181818;stroke-width:0.5;" x1="337" x2="622.8096" y1="369" y2="369"/><line style="stroke:#181818;stroke-width:0.5;" x1="337" x2="622.8096" y1="377" y2="377"/><ellipse cx="347" cy="390.7441" fill="#84BE84" rx="3" ry="3" style="stroke:#038048;stroke-width:1.0;"/><text fill="#000000" font-family="sans-serif" font-size="14" lengthAdjust="spacing" textLength="36.3877" x="356" y="394.5352">App()</text><ellipse cx="347" cy="407.2324" fill="#84BE84" rx="3" ry="3" style="stroke:#038048;stroke-width:1.0;"/><text fill="#000000" font-family="sans-serif" font-size="14" lengthAdjust="spacing" textLength="104.5488" x="356" y="411.0234">App(Controller)</text><ellipse cx="347" cy="423.7207" fill="#84BE84" rx="3" ry="3" style="stroke:#038048;stroke-width:1.0;"/><text fill="#000000" font-family="sans-serif" font-size="14" lengthAdjust="spacing" textLength="165.4775" x="356" y="427.5117">makePanel(): GamePanel</text><ellipse cx="347" cy="440.209" fill="#84BE84" rx="3" ry="3" style="stroke:#038048;stroke-width:1.0;"/><text fill="#000000" font-family="sans-serif" font-size="14" lengthAdjust="spacing" textLength="183.6338" x="356" y="444">startTick(GameBoard): void</text><ellipse cx="347" cy="456.6973" fill="#84BE84" rx="3" ry="3" style="stroke:#038048;stroke-width:1.0;"/><text fill="#000000" font-family="sans-serif" font-size="14" lengthAdjust="spacing" textLength="71.3057" x="356" y="460.4883">tick(): void</text><ellipse cx="347" cy="473.1855" fill="#84BE84" rx="3" ry="3" style="stroke:#038048;stroke-width:1.0;"/><text fill="#000000" font-family="sans-serif" font-size="14" lengthAdjust="spacing" text-decoration="underline" textLength="261.8096" x="356" y="476.9766">saveInputs(List&lt;Command&gt;, int): void</text><ellipse cx="347" cy="489.6738" fill="#84BE84" rx="3" ry="3" style="stroke:#038048;stroke-width:1.0;"/><text fill="#000000" font-family="sans-serif" font-size="14" lengthAdjust="spacing" text-decoration="underline" textLength="174.46" x="356" y="493.4648">muteGame(boolean): void</text><ellipse cx="347" cy="506.1621" fill="#84BE84" rx="3" ry="3" style="stroke:#038048;stroke-width:1.0;"/><text fill="#000000" font-family="sans-serif" font-size="14" lengthAdjust="spacing" textLength="153.1797" x="356" y="509.9531">updateGraphics(): void</text><ellipse cx="347" cy="522.6504" fill="#84BE84" rx="3" ry="3" style="stroke:#038048;stroke-width:1.0;"/><text fill="#000000" font-family="sans-serif" font-size="14" lengthAdjust="spacing" textLength="179.6074" x="356" y="526.4414">giveInput(Command): void</text><ellipse cx="347" cy="539.1387" fill="#84BE84" rx="3" ry="3" style="stroke:#038048;stroke-width:1.0;"/><text fill="#000000" font-family="sans-serif" font-size="14" lengthAdjust="spacing" textLength="160.7197" x="356" y="542.9297">initialStateRevert(): void</text><ellipse cx="347" cy="555.627" fill="#84BE84" rx="3" ry="3" style="stroke:#038048;stroke-width:1.0;"/><text fill="#000000" font-family="sans-serif" font-size="14" lengthAdjust="spacing" textLength="180.6123" x="356" y="559.418">pauseTimer(boolean): void</text><ellipse cx="347" cy="572.1152" fill="#84BE84" rx="3" ry="3" style="stroke:#038048;stroke-width:1.0;"/><text fill="#000000" font-family="sans-serif" font-size="14" lengthAdjust="spacing" textLength="115.2334" x="356" y="575.9063">openFile(): String</text><ellipse cx="347" cy="588.6035" fill="#84BE84" rx="3" ry="3" style="stroke:#038048;stroke-width:1.0;"/><text fill="#000000" font-family="sans-serif" font-size="14" lengthAdjust="spacing" textLength="111.248" x="356" y="592.3945">saveFile(): String</text><ellipse cx="347" cy="605.0918" fill="#84BE84" rx="3" ry="3" style="stroke:#038048;stroke-width:1.0;"/><text fill="#000000" font-family="sans-serif" font-size="14" lengthAdjust="spacing" textLength="80.4385" x="356" y="608.8828">ui(): UIPanel</text><ellipse cx="347" cy="621.5801" fill="#84BE84" rx="3" ry="3" style="stroke:#038048;stroke-width:1.0;"/><text fill="#000000" font-family="sans-serif" font-size="14" lengthAdjust="spacing" textLength="130.0195" x="356" y="625.3711">game(): GamePanel</text><ellipse cx="347" cy="638.0684" fill="#84BE84" rx="3" ry="3" style="stroke:#038048;stroke-width:1.0;"/><text fill="#000000" font-family="sans-serif" font-size="14" lengthAdjust="spacing" textLength="146.5557" x="356" y="641.8594">domain(): GameBoard</text><ellipse cx="347" cy="654.5566" fill="#84BE84" rx="3" ry="3" style="stroke:#038048;stroke-width:1.0;"/><text fill="#000000" font-family="sans-serif" font-size="14" lengthAdjust="spacing" textLength="186.0742" x="356" y="658.3477">initialDomain(): GameBoard</text><ellipse cx="347" cy="671.0449" fill="#84BE84" rx="3" ry="3" style="stroke:#038048;stroke-width:1.0;"/><text fill="#000000" font-family="sans-serif" font-size="14" lengthAdjust="spacing" textLength="151.7715" x="356" y="674.8359">controller(): Controller</text><ellipse cx="347" cy="687.5332" fill="#84BE84" rx="3" ry="3" style="stroke:#038048;stroke-width:1.0;"/><text fill="#000000" font-family="sans-serif" font-size="14" lengthAdjust="spacing" textLength="135.8232" x="356" y="691.3242">recorder(): Recorder</text><ellipse cx="347" cy="704.0215" fill="#84BE84" rx="3" ry="3" style="stroke:#038048;stroke-width:1.0;"/><text fill="#000000" font-family="sans-serif" font-size="14" lengthAdjust="spacing" textLength="132.0635" x="356" y="707.8125">timer(): GameTimer</text><ellipse cx="347" cy="720.5098" fill="#84BE84" rx="3" ry="3" style="stroke:#038048;stroke-width:1.0;"/><text fill="#000000" font-family="sans-serif" font-size="14" lengthAdjust="spacing" textLength="176.4424" x="356" y="724.3008">render(): ImageImplement</text><ellipse cx="347" cy="736.998" fill="#84BE84" rx="3" ry="3" style="stroke:#038048;stroke-width:1.0;"/><text fill="#000000" font-family="sans-serif" font-size="14" lengthAdjust="spacing" textLength="186.2861" x="356" y="740.7891">gameLoader(): GameLoader</text><ellipse cx="347" cy="753.4863" fill="#84BE84" rx="3" ry="3" style="stroke:#038048;stroke-width:1.0;"/><text fill="#000000" font-family="sans-serif" font-size="14" lengthAdjust="spacing" textLength="175.2598" x="356" y="757.2773">domain(GameBoard): void</text><ellipse cx="347" cy="769.9746" fill="#84BE84" rx="3" ry="3" style="stroke:#038048;stroke-width:1.0;"/><text fill="#000000" font-family="sans-serif" font-size="14" lengthAdjust="spacing" textLength="214.7783" x="356" y="773.7656">initialDomain(GameBoard): void</text></g></a><!--class Record--><g id="elem_Record"><rect codeLine="67" fill="#F1F1F1" height="48" id="Record" rx="2.5" ry="2.5" style="stroke:#181818;stroke-width:0.5;" width="78.9629" x="819.5" y="39"/><ellipse cx="834.5" cy="55" fill="#A9DCDF" rx="11" ry="11" style="stroke:#181818;stroke-width:1.0;"/><path d="M834.3633,50.3481 L833.2095,55.4199 L835.5254,55.4199 Z M832.8691,48.1069 L835.8657,48.1069 L839.2109,60.5 L836.7622,60.5 L835.9985,57.437 L832.7197,57.437 L831.9727,60.5 L829.5239,60.5 Z " fill="#000000"/><text fill="#000000" font-family="sans-serif" font-size="14" font-style="italic" lengthAdjust="spacing" textLength="46.9629" x="848.5" y="60.291">Record</text><line style="stroke:#181818;stroke-width:0.5;" x1="820.5" x2="897.4629" y1="71" y2="71"/><line style="stroke:#181818;stroke-width:0.5;" x1="820.5" x2="897.4629" y1="79" y2="79"/></g><!--class Timer--><g id="elem_Timer"><rect codeLine="71" fill="#F1F1F1" height="64.4883" id="Timer" rx="2.5" ry="2.5" style="stroke:#181818;stroke-width:0.5;" width="223.5723" x="1000" y="31"/><ellipse cx="1087.7871" cy="47" fill="#ADD1B2" rx="11" ry="11" style="stroke:#181818;stroke-width:1.0;"/><path d="M1090.2603,53.1431 Q1089.6792,53.4419 1089.04,53.5913 Q1088.4009,53.7407 1087.6953,53.7407 Q1085.1885,53.7407 1083.8687,52.0889 Q1082.5488,50.437 1082.5488,47.3159 Q1082.5488,44.1865 1083.8687,42.5347 Q1085.1885,40.8828 1087.6953,40.8828 Q1088.4009,40.8828 1089.0483,41.0322 Q1089.6958,41.1816 1090.2603,41.4805 L1090.2603,44.2031 Q1089.6294,43.6221 1089.0359,43.3523 Q1088.4424,43.0825 1087.8115,43.0825 Q1086.4668,43.0825 1085.782,44.1492 Q1085.0972,45.2158 1085.0972,47.3159 Q1085.0972,49.4077 1085.782,50.4744 Q1086.4668,51.541 1087.8115,51.541 Q1088.4424,51.541 1089.0359,51.2712 Q1089.6294,51.0015 1090.2603,50.4204 Z " fill="#000000"/><text fill="#000000" font-family="sans-serif" font-size="14" lengthAdjust="spacing" textLength="39.498" x="1108.2871" y="52.291">Timer</text><line style="stroke:#181818;stroke-width:0.5;" x1="1001" x2="1222.5723" y1="63" y2="63"/><polygon fill="none" points="1011,71.7441,1015,75.7441,1011,79.7441,1007,75.7441" style="stroke:#B38D22;stroke-width:1.0;"/><text fill="#000000" font-family="sans-serif" font-size="14" lengthAdjust="spacing" textLength="197.5723" x="1020" y="80.5352">listenerList: EventListenerList</text><line style="stroke:#181818;stroke-width:0.5;" x1="1001" x2="1222.5723" y1="87.4883" y2="87.4883"/></g><!--class AppFrame--><g id="elem_AppFrame"><rect fill="#F1F1F1" height="48" id="AppFrame" rx="2.5" ry="2.5" style="stroke:#181818;stroke-width:0.5;" width="101.1182" x="210.5" y="195.5"/><ellipse cx="225.5" cy="211.5" fill="#ADD1B2" rx="11" ry="11" style="stroke:#181818;stroke-width:1.0;"/><path d="M227.9731,217.6431 Q227.3921,217.9419 226.7529,218.0913 Q226.1138,218.2407 225.4082,218.2407 Q222.9014,218.2407 221.5815,216.5889 Q220.2617,214.937 220.2617,211.8159 Q220.2617,208.6865 221.5815,207.0347 Q222.9014,205.3828 225.4082,205.3828 Q226.1138,205.3828 226.7612,205.5322 Q227.4087,205.6816 227.9731,205.9805 L227.9731,208.7031 Q227.3423,208.1221 226.7488,207.8523 Q226.1553,207.5825 225.5244,207.5825 Q224.1797,207.5825 223.4949,208.6492 Q222.8101,209.7158 222.8101,211.8159 Q222.8101,213.9077 223.4949,214.9744 Q224.1797,216.041 225.5244,216.041 Q226.1553,216.041 226.7488,215.7712 Q227.3423,215.5015 227.9731,214.9204 Z " fill="#000000"/><text fill="#000000" font-family="sans-serif" font-size="14" lengthAdjust="spacing" textLength="69.1182" x="239.5" y="216.791">AppFrame</text><line style="stroke:#181818;stroke-width:0.5;" x1="211.5" x2="310.6182" y1="227.5" y2="227.5"/><line style="stroke:#181818;stroke-width:0.5;" x1="211.5" x2="310.6182" y1="235.5" y2="235.5"/></g><polygon fill="none" points="859,87.1302,853,105.1302,865,105.1302,859,87.1302" style="stroke:#181818;stroke-width:1.0;"/><path d="M859,105.1302 C859,120.8719 859,124.639 859,145.9303 " fill="none" style="stroke:#181818;stroke-width:1.0;"/><polygon fill="none" points="1112,95.2654,1106,113.2654,1118,113.2654,1112,95.2654" style="stroke:#181818;stroke-width:1.0;"/><path d="M1112,113.2654 C1112,130.2831 1112,133.9819 1112,154.4146 " fill="none" style="stroke:#181818;stroke-width:1.0;"/><polygon fill="none" points="276.0528,243.6977,280.8175,262.0634,290.884,255.5314,276.0528,243.6977" style="stroke:#181818;stroke-width:1.0;"/><path d="M285.8507,258.7974 C299.6699,280.094 311.881,298.9125 336.4273,336.7406 " fill="none" style="stroke:#181818;stroke-width:1.0;"/><polygon fill="none" points="449.581,301.3397,445.7412,319.9207,457.6578,318.5084,449.581,301.3397" style="stroke:#181818;stroke-width:1.0;"/><path d="M451.6995,319.2146 C453.0285,330.4278 452.3241,324.4846 453.7875,336.832 " fill="none" style="stroke:#181818;stroke-width:1.0;stroke-dasharray:7.0,7.0;"/><text fill="#888888" font-family="sans-serif" font-size="10" lengthAdjust="spacing" textLength="3.1641" x="609.918" y="800.668">&#160;</text><text fill="#888888" font-family="sans-serif" font-size="10" lengthAdjust="spacing" textLength="236.626" x="493.187" y="812.4453">UMLDoclet 2.2.1-SNAPSHOT, PlantUML 1.2024.7</text><!--SRC=[fLRVRvim47xlN-5fcaJL5ccHzeAgILdwOsXf5oL4UyYgwWfNwjNOo9XqMzl_VMUW2I4G8eqNiEyx- -wxxsmOO-nTgY5EW0duetB3iWGDI3WW2ykGnfY21gCqyxo3OZQ5y15YPFAl2w7x51lfPaye1uDFhWXTI5FsN0Bj4mh8CdO92OuLHAZPOh4Uk0yc4JStX6UrvsWDS8PfUhXf56IOmHATGuyj5O-shMDSed2uD3q8kyqN1Jhgn4qnL3hYCkx1Kius70fsDV_QHa70anK3nNSx0S-P0SF3LtOK-ADljzDXSEunogS3v5zFvi7jZw4Vx4BHHumZbKiJgIVfiKZbTmAtYI_YSgQvb43s1lawb-TBb6PbFsOjF6_bVWLSKjhsrPTnGXXdPZIHlhZPiJ1jY_eUGhIi-wl1Ob4V_W-zS9SP3Q4XM9v6OF1IG_h0mwnLU7Lup9VeopGtpaWb2SYepu5BRZY86OM5KvAcDhrxf91dLQdkb188iiz3fIWlk2ZwfkIt4vfHUtL0jqfBT9UaT_JoqBR6zjH8IQEL4AWRnWGUSGAIsfCsjtei1fiOgfys0GyVUzhIM4WhB-kkWAfMcJFccJcjAlQvLTSDfUQa2Tf_Lm7saSv-UjbN97igeqyEkpHG9iQjPUwtb2Usf7HNBr95ZrU0edgjcPxruSALXYnehQZ6aLMSuILcMdqtPPAKvjNnrrn1Llv-GcUedwG24soS5qNMrQLLBLMEMfFVhTjD0ZgnLI- -RjxAls09hW0PrphnhRUhdYrfw7B-JRSvtt0llShBQxEztmjg6fIeRVDuhBWRnhMfMgortLOXUbuP2ZjzEJdf_f_ml0QTjJ0zhunhdnNMjUq4kdFVjKeYub5ddaTdrOKcrzxrt-x-tP3rHNNwuhhxh1UYTM7tIjdNJpc_6f-fKD2FsS0Tk1zFPjV3oUphz-2OJOXHGsRsWGw7Z2jgdNy0]--></g></svg>