<svg xmlns="http://www.w3.org/2000/svg" xmlns:xlink="http://www.w3.org/1999/xlink" contentStyleType="text/css" height="541px" preserveAspectRatio="none" style="width:665px;height:541px;background:#FFFFFF;" version="1.1" viewBox="0 0 665 541" width="665px" zoomAndPan="magnify"><defs/><g><!--cluster nz.ac.wgtn.swen225.lc.recorder--><g id="cluster_nz.ac.wgtn.swen225.lc.recorder"><path d="M16.5,111 L242.3955,111 A3.75,3.75 0 0 1 244.8955,113.5 L251.8955,133.4883 L608.5,133.4883 A2.5,2.5 0 0 1 611,135.9883 L611,505.5 A2.5,2.5 0 0 1 608.5,508 L16.5,508 A2.5,2.5 0 0 1 14,505.5 L14,113.5 A2.5,2.5 0 0 1 16.5,111 " fill="none" style="stroke:#000000;stroke-width:1.5;"/><line style="stroke:#000000;stroke-width:1.5;" x1="14" x2="251.8955" y1="133.4883" y2="133.4883"/><text fill="#000000" font-family="sans-serif" font-size="14" font-weight="bold" lengthAdjust="spacing" textLength="224.8955" x="18" y="126.5352">nz.ac.wgtn.swen225.lc.recorder</text></g><!--cluster javax.swing--><g id="cluster_javax.swing"><path d="M420.5,4 L505.6367,4 A3.75,3.75 0 0 1 508.1367,6.5 L515.1367,26.4883 L655.5,26.4883 A2.5,2.5 0 0 1 658,28.9883 L658,100.5 A2.5,2.5 0 0 1 655.5,103 L420.5,103 A2.5,2.5 0 0 1 418,100.5 L418,6.5 A2.5,2.5 0 0 1 420.5,4 " fill="none" style="stroke:#000000;stroke-width:1.5;"/><line style="stroke:#000000;stroke-width:1.5;" x1="418" x2="515.1367" y1="26.4883" y2="26.4883"/><text fill="#000000" font-family="sans-serif" font-size="14" font-weight="bold" lengthAdjust="spacing" textLength="84.1367" x="422" y="19.5352">javax.swing</text></g><!--class PlaybackTimer--><a href="PlaybackTimer.html" target="_top" title="PlaybackTimer.html" xlink:actuate="onRequest" xlink:href="PlaybackTimer.html" xlink:show="new" xlink:title="PlaybackTimer.html" xlink:type="simple"><g id="elem_PlaybackTimer"><rect codeLine="6" fill="#F1F1F1" height="48" id="PlaybackTimer" rx="2.5" ry="2.5" style="stroke:#181818;stroke-width:0.5;" width="130.2256" x="473" y="245"/><ellipse cx="488" cy="261" fill="#ADD1B2" rx="11" ry="11" style="stroke:#181818;stroke-width:1.0;"/><path d="M490.4731,267.1431 Q489.8921,267.4419 489.2529,267.5913 Q488.6138,267.7407 487.9082,267.7407 Q485.4014,267.7407 484.0815,266.0889 Q482.7617,264.437 482.7617,261.3159 Q482.7617,258.1865 484.0815,256.5347 Q485.4014,254.8828 487.9082,254.8828 Q488.6138,254.8828 489.2612,255.0322 Q489.9087,255.1816 490.4731,255.4805 L490.4731,258.2031 Q489.8423,257.6221 489.2488,257.3523 Q488.6553,257.0825 488.0244,257.0825 Q486.6797,257.0825 485.9949,258.1492 Q485.3101,259.2158 485.3101,261.3159 Q485.3101,263.4077 485.9949,264.4744 Q486.6797,265.541 488.0244,265.541 Q488.6553,265.541 489.2488,265.2712 Q489.8423,265.0015 490.4731,264.4204 Z " fill="#000000"/><text fill="#000000" font-family="sans-serif" font-size="14" lengthAdjust="spacing" textLength="98.2256" x="502" y="266.291">PlaybackTimer</text><line style="stroke:#181818;stroke-width:0.5;" x1="474" x2="602.2256" y1="277" y2="277"/><line style="stroke:#181818;stroke-width:0.5;" x1="474" x2="602.2256" y1="285" y2="285"/></g></a><!--class RecorderTests--><a href="RecorderTests.html" target="_top" title="RecorderTests.html" xlink:actuate="onRequest" xlink:href="RecorderTests.html" xlink:show="new" xlink:title="RecorderTests.html" xlink:type="simple"><g id="elem_RecorderTests"><rect codeLine="9" fill="#F1F1F1" height="48" id="RecorderTests" rx="2.5" ry="2.5" style="stroke:#181818;stroke-width:0.5;" width="128.6533" x="22.5" y="245"/><ellipse cx="37.5" cy="261" fill="#ADD1B2" rx="11" ry="11" style="stroke:#181818;stroke-width:1.0;"/><path d="M39.9731,267.1431 Q39.3921,267.4419 38.7529,267.5913 Q38.1138,267.7407 37.4082,267.7407 Q34.9014,267.7407 33.5815,266.0889 Q32.2617,264.437 32.2617,261.3159 Q32.2617,258.1865 33.5815,256.5347 Q34.9014,254.8828 37.4082,254.8828 Q38.1138,254.8828 38.7612,255.0322 Q39.4087,255.1816 39.9731,255.4805 L39.9731,258.2031 Q39.3423,257.6221 38.7488,257.3523 Q38.1553,257.0825 37.5244,257.0825 Q36.1797,257.0825 35.4949,258.1492 Q34.8101,259.2158 34.8101,261.3159 Q34.8101,263.4077 35.4949,264.4744 Q36.1797,265.541 37.5244,265.541 Q38.1553,265.541 38.7488,265.2712 Q39.3423,265.0015 39.9731,264.4204 Z " fill="#000000"/><text fill="#000000" font-family="sans-serif" font-size="14" lengthAdjust="spacing" textLength="96.6533" x="51.5" y="266.291">RecorderTests</text><line style="stroke:#181818;stroke-width:0.5;" x1="23.5" x2="150.1533" y1="277" y2="277"/><line style="stroke:#181818;stroke-width:0.5;" x1="23.5" x2="150.1533" y1="285" y2="285"/></g></a><!--class Recorder--><a href="Recorder.html" target="_top" title="Recorder.html" xlink:actuate="onRequest" xlink:href="Recorder.html" xlink:show="new" xlink:title="Recorder.html" xlink:type="simple"><g id="elem_Recorder"><rect codeLine="12" fill="#F1F1F1" height="262.3477" id="Recorder" rx="2.5" ry="2.5" style="stroke:#181818;stroke-width:0.5;" width="285.4375" x="169.5" y="138"/><ellipse cx="277.7231" cy="154" fill="#B4A7E5" rx="11" ry="11" style="stroke:#181818;stroke-width:1.0;"/><path d="M274.1509,150.2651 L274.1509,148.1069 L281.5303,148.1069 L281.5303,150.2651 L279.0649,150.2651 L279.0649,158.3418 L281.5303,158.3418 L281.5303,160.5 L274.1509,160.5 L274.1509,158.3418 L276.6162,158.3418 L276.6162,150.2651 Z " fill="#000000"/><text fill="#000000" font-family="sans-serif" font-size="14" font-style="italic" lengthAdjust="spacing" textLength="60.4912" x="298.2231" y="159.291">Recorder</text><line style="stroke:#181818;stroke-width:0.5;" x1="170.5" x2="453.9375" y1="170" y2="170"/><line style="stroke:#181818;stroke-width:0.5;" x1="170.5" x2="453.9375" y1="178" y2="178"/><ellipse cx="180.5" cy="191.7441" fill="#84BE84" rx="3" ry="3" style="stroke:#038048;stroke-width:1.0;"/><text fill="#000000" font-family="sans-serif" font-size="14" font-style="italic" lengthAdjust="spacing" textLength="259.4375" x="189.5" y="195.5352">setCommands(List&lt;Command&gt;): void</text><ellipse cx="180.5" cy="208.2324" fill="#84BE84" rx="3" ry="3" style="stroke:#038048;stroke-width:1.0;"/><text fill="#000000" font-family="sans-serif" font-size="14" font-style="italic" lengthAdjust="spacing" textLength="184.3037" x="189.5" y="212.0234">setPlaybackSpeed(int): void</text><ellipse cx="180.5" cy="224.7207" fill="#84BE84" rx="3" ry="3" style="stroke:#038048;stroke-width:1.0;"/><text fill="#000000" font-family="sans-serif" font-size="14" font-style="italic" lengthAdjust="spacing" textLength="232.3262" x="189.5" y="228.5117">getCommands(): List&lt;Command&gt;</text><ellipse cx="180.5" cy="241.209" fill="#84BE84" rx="3" ry="3" style="stroke:#038048;stroke-width:1.0;"/><text fill="#000000" font-family="sans-serif" font-size="14" font-style="italic" lengthAdjust="spacing" textLength="140.9639" x="189.5" y="245">tick(Command): void</text><ellipse cx="180.5" cy="257.6973" fill="#84BE84" rx="3" ry="3" style="stroke:#038048;stroke-width:1.0;"/><text fill="#000000" font-family="sans-serif" font-size="14" font-style="italic" lengthAdjust="spacing" textLength="96.1543" x="189.5" y="261.4883">undo(): Action</text><ellipse cx="180.5" cy="274.1855" fill="#84BE84" rx="3" ry="3" style="stroke:#038048;stroke-width:1.0;"/><text fill="#000000" font-family="sans-serif" font-size="14" font-style="italic" lengthAdjust="spacing" textLength="92.3057" x="189.5" y="277.9766">redo(): Action</text><ellipse cx="180.5" cy="290.6738" fill="#84BE84" rx="3" ry="3" style="stroke:#038048;stroke-width:1.0;"/><text fill="#000000" font-family="sans-serif" font-size="14" font-style="italic" lengthAdjust="spacing" textLength="95.3613" x="189.5" y="294.4648">redoAll(): void</text><ellipse cx="180.5" cy="307.1621" fill="#84BE84" rx="3" ry="3" style="stroke:#038048;stroke-width:1.0;"/><text fill="#000000" font-family="sans-serif" font-size="14" font-style="italic" lengthAdjust="spacing" textLength="89.2705" x="189.5" y="310.9531">play(): Action</text><ellipse cx="180.5" cy="323.6504" fill="#84BE84" rx="3" ry="3" style="stroke:#038048;stroke-width:1.0;"/><text fill="#000000" font-family="sans-serif" font-size="14" font-style="italic" lengthAdjust="spacing" textLength="86.8369" x="189.5" y="327.4414">pause(): void</text><ellipse cx="180.5" cy="340.1387" fill="#84BE84" rx="3" ry="3" style="stroke:#038048;stroke-width:1.0;"/><text fill="#000000" font-family="sans-serif" font-size="14" font-style="italic" lengthAdjust="spacing" textLength="126.2051" x="189.5" y="343.9297">takeControl(): void</text><ellipse cx="180.5" cy="356.627" fill="#84BE84" rx="3" ry="3" style="stroke:#038048;stroke-width:1.0;"/><text fill="#000000" font-family="sans-serif" font-size="14" font-style="italic" lengthAdjust="spacing" textLength="131.6328" x="189.5" y="360.418">canUndo(): boolean</text><ellipse cx="180.5" cy="373.1152" fill="#84BE84" rx="3" ry="3" style="stroke:#038048;stroke-width:1.0;"/><text fill="#000000" font-family="sans-serif" font-size="14" font-style="italic" lengthAdjust="spacing" textLength="129.8965" x="189.5" y="376.9063">canRedo(): boolean</text><ellipse cx="180.5" cy="389.6035" fill="#84BE84" rx="3" ry="3" style="stroke:#038048;stroke-width:1.0;"/><text fill="#000000" font-family="sans-serif" font-size="14" lengthAdjust="spacing" text-decoration="underline" textLength="206.541" x="189.5" y="393.3945">create(AppInterface): Recorder</text></g></a><!--class RecorderAction--><a href="RecorderAction.html" target="_top" title="RecorderAction.html" xlink:actuate="onRequest" xlink:href="RecorderAction.html" xlink:show="new" xlink:title="RecorderAction.html" xlink:type="simple"><g id="elem_RecorderAction"><rect codeLine="28" fill="#F1F1F1" height="64.4883" id="RecorderAction" rx="2.5" ry="2.5" style="stroke:#181818;stroke-width:0.5;" width="164.4209" x="22" y="436"/><ellipse cx="49.8377" cy="452" fill="#B4A7E5" rx="11" ry="11" style="stroke:#181818;stroke-width:1.0;"/><path d="M46.2655,448.2651 L46.2655,446.1069 L53.6449,446.1069 L53.6449,448.2651 L51.1795,448.2651 L51.1795,456.3418 L53.6449,456.3418 L53.6449,458.5 L46.2655,458.5 L46.2655,456.3418 L48.7308,456.3418 L48.7308,448.2651 Z " fill="#000000"/><text fill="#000000" font-family="sans-serif" font-size="14" font-style="italic" lengthAdjust="spacing" textLength="103.8926" x="66.6906" y="457.291">RecorderAction</text><line style="stroke:#181818;stroke-width:0.5;" x1="23" x2="185.4209" y1="468" y2="468"/><line style="stroke:#181818;stroke-width:0.5;" x1="23" x2="185.4209" y1="476" y2="476"/><ellipse cx="33" cy="489.7441" fill="#84BE84" rx="3" ry="3" style="stroke:#038048;stroke-width:1.0;"/><text fill="#000000" font-family="sans-serif" font-size="14" lengthAdjust="spacing" text-decoration="underline" textLength="138.4209" x="42" y="493.5352">of(Runnable): Action</text></g></a><!--class Timer--><g id="elem_Timer"><rect codeLine="35" fill="#F1F1F1" height="64.4883" id="Timer" rx="2.5" ry="2.5" style="stroke:#181818;stroke-width:0.5;" width="223.5723" x="426" y="31"/><ellipse cx="513.7871" cy="47" fill="#ADD1B2" rx="11" ry="11" style="stroke:#181818;stroke-width:1.0;"/><path d="M516.2603,53.1431 Q515.6792,53.4419 515.04,53.5913 Q514.4009,53.7407 513.6953,53.7407 Q511.1885,53.7407 509.8687,52.0889 Q508.5488,50.437 508.5488,47.3159 Q508.5488,44.1865 509.8687,42.5347 Q511.1885,40.8828 513.6953,40.8828 Q514.4009,40.8828 515.0483,41.0322 Q515.6958,41.1816 516.2603,41.4805 L516.2603,44.2031 Q515.6294,43.6221 515.0359,43.3523 Q514.4424,43.0825 513.8115,43.0825 Q512.4668,43.0825 511.782,44.1492 Q511.0972,45.2158 511.0972,47.3159 Q511.0972,49.4077 511.782,50.4744 Q512.4668,51.541 513.8115,51.541 Q514.4424,51.541 515.0359,51.2712 Q515.6294,51.0015 516.2603,50.4204 Z " fill="#000000"/><text fill="#000000" font-family="sans-serif" font-size="14" lengthAdjust="spacing" textLength="39.498" x="534.2871" y="52.291">Timer</text><line style="stroke:#181818;stroke-width:0.5;" x1="427" x2="648.5723" y1="63" y2="63"/><polygon fill="none" points="437,71.7441,441,75.7441,437,79.7441,433,75.7441" style="stroke:#B38D22;stroke-width:1.0;"/><text fill="#000000" font-family="sans-serif" font-size="14" lengthAdjust="spacing" textLength="197.5723" x="446" y="80.5352">listenerList: EventListenerList</text><line style="stroke:#181818;stroke-width:0.5;" x1="427" x2="648.5723" y1="87.4883" y2="87.4883"/></g><polygon fill="none" points="538,95.4279,532,113.4279,544,113.4279,538,95.4279" style="stroke:#181818;stroke-width:1.0;"/><path d="M538,113.4279 C538,154.6692 538,208.1012 538,244.7856 " fill="none" style="stroke:#181818;stroke-width:1.0;"/><text fill="#888888" font-family="sans-serif" font-size="10" lengthAdjust="spacing" textLength="3.1641" x="322.918" y="519.668">&#160;</text><text fill="#888888" font-family="sans-serif" font-size="10" lengthAdjust="spacing" textLength="236.626" x="206.187" y="531.4453">UMLDoclet 2.2.1-SNAPSHOT, PlantUML 1.2024.7</text><!--SRC=[ZLHBIyD04BxxArP4Y6W35ho48XGL5Eg3jfxKmtGpZR6RsR0xhS_-ToScbKHfqxs4cVqUsM5cb59gDtUGPA0ClDivAvyX0y6Et2YF4cCE3jWw5KKxFzaSz0mILFGHWWvV4wRGlo9rkoUXqQ53RLsCJdsMwE9e0zwhEt6O27USPdBzyD28msVEpDEJi5QavL_-i58UesSl_4QyaPyIevk2nb-D6lq_ipYVCF7iGFDI7KePpcoM0SK-6AIUUrLqUX2fXKtZJSJL8qSvOXp8ZxHnafgPO1j-QqcSwbbGeTeCvXJRGhclERMq5kPmQrZVcA3DDPSwR26NmznZgnZ33CyiiRFjnXheldhnn5g3G9kWGzm0zGnIw0Be41Y3VfvVhJfBEAk6sgu3oqBK-h1ChEd6Nsix3OPp8fWO_5_Dod3PdDCNMC2RZ6XAIKssdAbo5fjcUqPw3WbTqNkHkbWWyQ2MgjdLt6ekKLJAzhuwdPOj4KMDBV2ZfB4ebffQMtmUwVvwS6wraLtK3RlXSMTqqxyRNTwEZugDGYpNQd-1paibWeDl]--></g></svg>