<svg xmlns="http://www.w3.org/2000/svg" xmlns:xlink="http://www.w3.org/1999/xlink" contentStyleType="text/css" height="318px" preserveAspectRatio="none" style="width:793px;height:318px;background:#FFFFFF;" version="1.1" viewBox="0 0 793 318" width="793px" zoomAndPan="magnify"><defs/><g><!--cluster nz.ac.wgtn.swen225.lc.persistency--><g id="cluster_nz.ac.wgtn.swen225.lc.persistency"><path d="M16.5,4 L264.1406,4 A3.75,3.75 0 0 1 266.6406,6.5 L273.6406,26.4883 L783.5,26.4883 A2.5,2.5 0 0 1 786,28.9883 L786,282.5 A2.5,2.5 0 0 1 783.5,285 L16.5,285 A2.5,2.5 0 0 1 14,282.5 L14,6.5 A2.5,2.5 0 0 1 16.5,4 " fill="none" style="stroke:#000000;stroke-width:1.5;"/><line style="stroke:#000000;stroke-width:1.5;" x1="14" x2="273.6406" y1="26.4883" y2="26.4883"/><text fill="#000000" font-family="sans-serif" font-size="14" font-weight="bold" lengthAdjust="spacing" textLength="246.6406" x="18" y="19.5352">nz.ac.wgtn.swen225.lc.persistency</text></g><!--class ObjectMapper--><a href="ObjectMapper.html" target="_top" title="ObjectMapper.html" xlink:actuate="onRequest" xlink:href="ObjectMapper.html" xlink:show="new" xlink:title="ObjectMapper.html" xlink:type="simple"><g id="elem_ObjectMapper"><rect codeLine="6" fill="#F1F1F1" height="245.8594" id="ObjectMapper" rx="2.5" ry="2.5" style="stroke:#181818;stroke-width:0.5;" width="407.8145" x="370" y="31"/><ellipse cx="522.1099" cy="47" fill="#ADD1B2" rx="11" ry="11" style="stroke:#181818;stroke-width:1.0;"/><path d="M524.583,53.1431 Q524.002,53.4419 523.3628,53.5913 Q522.7236,53.7407 522.0181,53.7407 Q519.5112,53.7407 518.1914,52.0889 Q516.8716,50.437 516.8716,47.3159 Q516.8716,44.1865 518.1914,42.5347 Q519.5112,40.8828 522.0181,40.8828 Q522.7236,40.8828 523.3711,41.0322 Q524.0186,41.1816 524.583,41.4805 L524.583,44.2031 Q523.9521,43.6221 523.3586,43.3523 Q522.7651,43.0825 522.1343,43.0825 Q520.7896,43.0825 520.1047,44.1492 Q519.4199,45.2158 519.4199,47.3159 Q519.4199,49.4077 520.1047,50.4744 Q520.7896,51.541 522.1343,51.541 Q522.7651,51.541 523.3586,51.2712 Q523.9521,51.0015 524.583,50.4204 Z " fill="#000000"/><text fill="#000000" font-family="sans-serif" font-size="14" lengthAdjust="spacing" textLength="95.0947" x="542.6099" y="52.291">ObjectMapper</text><line style="stroke:#181818;stroke-width:0.5;" x1="371" x2="776.8145" y1="63" y2="63"/><line style="stroke:#181818;stroke-width:0.5;" x1="371" x2="776.8145" y1="71" y2="71"/><ellipse cx="381" cy="84.7441" fill="#84BE84" rx="3" ry="3" style="stroke:#038048;stroke-width:1.0;"/><text fill="#000000" font-family="sans-serif" font-size="14" lengthAdjust="spacing" textLength="237.084" x="390" y="88.5352">saveLeveltoFile(GameBoard): String</text><ellipse cx="381" cy="101.2324" fill="#84BE84" rx="3" ry="3" style="stroke:#038048;stroke-width:1.0;"/><text fill="#000000" font-family="sans-serif" font-size="14" lengthAdjust="spacing" textLength="344.5107" x="390" y="105.0234">saveCommandstoFile(List&lt;Command&gt;, int): String</text><ellipse cx="381" cy="117.7207" fill="#84BE84" rx="3" ry="3" style="stroke:#038048;stroke-width:1.0;"/><text fill="#000000" font-family="sans-serif" font-size="14" lengthAdjust="spacing" textLength="310.6387" x="390" y="121.5117">convertJSONtoGameBoard(String): GameBoard</text><ellipse cx="381" cy="134.209" fill="#84BE84" rx="3" ry="3" style="stroke:#038048;stroke-width:1.0;"/><text fill="#000000" font-family="sans-serif" font-size="14" lengthAdjust="spacing" textLength="321.6924" x="390" y="138">convertJSONtoActions(String): List&lt;Command&gt;</text><ellipse cx="381" cy="150.6973" fill="#84BE84" rx="3" ry="3" style="stroke:#038048;stroke-width:1.0;"/><text fill="#000000" font-family="sans-serif" font-size="14" lengthAdjust="spacing" textLength="190.4424" x="390" y="154.4883">gameItemCode(Item): String</text><ellipse cx="381" cy="167.1855" fill="#84BE84" rx="3" ry="3" style="stroke:#038048;stroke-width:1.0;"/><text fill="#000000" font-family="sans-serif" font-size="14" lengthAdjust="spacing" textLength="211.0938" x="390" y="170.9766">locationMaker(String): Location</text><ellipse cx="381" cy="183.6738" fill="#84BE84" rx="3" ry="3" style="stroke:#038048;stroke-width:1.0;"/><text fill="#000000" font-family="sans-serif" font-size="14" lengthAdjust="spacing" textLength="223.4121" x="390" y="187.4648">returnDirection(String): Direction</text><ellipse cx="381" cy="200.1621" fill="#84BE84" rx="3" ry="3" style="stroke:#038048;stroke-width:1.0;"/><text fill="#000000" font-family="sans-serif" font-size="14" lengthAdjust="spacing" textLength="381.8145" x="390" y="203.9531">convertBoardToStrings(GameBoard): List&lt;List&lt;String&gt;&gt;</text><ellipse cx="381" cy="216.6504" fill="#84BE84" rx="3" ry="3" style="stroke:#038048;stroke-width:1.0;"/><text fill="#000000" font-family="sans-serif" font-size="14" lengthAdjust="spacing" textLength="224.5605" x="390" y="220.4414">pathDefinining(ActorPath): String</text><ellipse cx="381" cy="233.1387" fill="#84BE84" rx="3" ry="3" style="stroke:#038048;stroke-width:1.0;"/><text fill="#000000" font-family="sans-serif" font-size="14" lengthAdjust="spacing" textLength="224.5605" x="390" y="236.9297">pathDefinining(String): ActorPath</text><ellipse cx="381" cy="249.627" fill="#84BE84" rx="3" ry="3" style="stroke:#038048;stroke-width:1.0;"/><text fill="#000000" font-family="sans-serif" font-size="14" lengthAdjust="spacing" textLength="266.6494" x="390" y="253.418">orientationDefining(String): Orientation</text><ellipse cx="381" cy="266.1152" fill="#84BE84" rx="3" ry="3" style="stroke:#038048;stroke-width:1.0;"/><text fill="#000000" font-family="sans-serif" font-size="14" lengthAdjust="spacing" textLength="266.6494" x="390" y="269.9063">orientationDefining(Orientation): String</text></g></a><!--class Persistency--><a href="Persistency.html" target="_top" title="Persistency.html" xlink:actuate="onRequest" xlink:href="Persistency.html" xlink:show="new" xlink:title="Persistency.html" xlink:type="simple"><g id="elem_Persistency"><rect codeLine="21" fill="#F1F1F1" height="179.9063" id="Persistency" rx="2.5" ry="2.5" style="stroke:#181818;stroke-width:0.5;" width="328.5449" x="22.5" y="64"/><ellipse cx="144.624" cy="80" fill="#ADD1B2" rx="11" ry="11" style="stroke:#181818;stroke-width:1.0;"/><path d="M147.0972,86.1431 Q146.5161,86.4419 145.877,86.5913 Q145.2378,86.7407 144.5322,86.7407 Q142.0254,86.7407 140.7056,85.0889 Q139.3857,83.437 139.3857,80.3159 Q139.3857,77.1865 140.7056,75.5347 Q142.0254,73.8828 144.5322,73.8828 Q145.2378,73.8828 145.8853,74.0322 Q146.5327,74.1816 147.0972,74.4805 L147.0972,77.2031 Q146.4663,76.6221 145.8728,76.3523 Q145.2793,76.0825 144.6484,76.0825 Q143.3037,76.0825 142.6189,77.1492 Q141.9341,78.2158 141.9341,80.3159 Q141.9341,82.4077 142.6189,83.4744 Q143.3037,84.541 144.6484,84.541 Q145.2793,84.541 145.8728,84.2712 Q146.4663,84.0015 147.0972,83.4204 Z " fill="#000000"/><text fill="#000000" font-family="sans-serif" font-size="14" lengthAdjust="spacing" textLength="75.7969" x="165.124" y="85.291">Persistency</text><line style="stroke:#181818;stroke-width:0.5;" x1="23.5" x2="350.0449" y1="96" y2="96"/><ellipse cx="33.5" cy="109.7441" fill="none" rx="3" ry="3" style="stroke:#038048;stroke-width:1.0;"/><text fill="#000000" font-family="sans-serif" font-size="14" lengthAdjust="spacing" text-decoration="underline" textLength="79.2969" x="42.5" y="113.5352">path: String</text><line style="stroke:#181818;stroke-width:0.5;" x1="23.5" x2="350.0449" y1="120.4883" y2="120.4883"/><ellipse cx="33.5" cy="134.2324" fill="#84BE84" rx="3" ry="3" style="stroke:#038048;stroke-width:1.0;"/><text fill="#000000" font-family="sans-serif" font-size="14" lengthAdjust="spacing" text-decoration="underline" textLength="231.8682" x="42.5" y="138.0234">saveGameBoard(GameBoard): void</text><ellipse cx="33.5" cy="150.7207" fill="#84BE84" rx="3" ry="3" style="stroke:#038048;stroke-width:1.0;"/><text fill="#000000" font-family="sans-serif" font-size="14" lengthAdjust="spacing" text-decoration="underline" textLength="277.8125" x="42.5" y="154.5117">saveProgress(List&lt;Command&gt;, int): void</text><ellipse cx="33.5" cy="167.209" fill="#84BE84" rx="3" ry="3" style="stroke:#038048;stroke-width:1.0;"/><text fill="#000000" font-family="sans-serif" font-size="14" lengthAdjust="spacing" text-decoration="underline" textLength="296.0098" x="42.5" y="171">saveCommands(List&lt;Command&gt;, int): void</text><ellipse cx="33.5" cy="183.6973" fill="#84BE84" rx="3" ry="3" style="stroke:#038048;stroke-width:1.0;"/><text fill="#000000" font-family="sans-serif" font-size="14" lengthAdjust="spacing" text-decoration="underline" textLength="205.3174" x="42.5" y="187.4883">uniqueFilename(String): String</text><ellipse cx="33.5" cy="200.1855" fill="#84BE84" rx="3" ry="3" style="stroke:#038048;stroke-width:1.0;"/><text fill="#000000" font-family="sans-serif" font-size="14" lengthAdjust="spacing" text-decoration="underline" textLength="220.4111" x="42.5" y="203.9766">loadGameBoard(int): GameBoard</text><ellipse cx="33.5" cy="216.6738" fill="#84BE84" rx="3" ry="3" style="stroke:#038048;stroke-width:1.0;"/><text fill="#000000" font-family="sans-serif" font-size="14" lengthAdjust="spacing" text-decoration="underline" textLength="246.3193" x="42.5" y="220.4648">loadwithFilePath(String): GameBoard</text><ellipse cx="33.5" cy="233.1621" fill="#84BE84" rx="3" ry="3" style="stroke:#038048;stroke-width:1.0;"/><text fill="#000000" font-family="sans-serif" font-size="14" lengthAdjust="spacing" text-decoration="underline" textLength="302.5449" x="42.5" y="236.9531">loadRecording(Recorder, String): GameBoard</text></g></a><text fill="#888888" font-family="sans-serif" font-size="10" lengthAdjust="spacing" textLength="3.1641" x="386.918" y="296.668">&#160;</text><text fill="#888888" font-family="sans-serif" font-size="10" lengthAdjust="spacing" textLength="236.626" x="270.187" y="308.4453">UMLDoclet 2.2.1-SNAPSHOT, PlantUML 1.2024.7</text><!--SRC=[bLJBRjim4BpdAzX30GTr1DH0BqOH88tH5-nOgDEJcyE6siXiAAvAhcsaWVyzfAJguSWsAW6Ik9nPxf2p4aA8Dxc5D0EXuOdMB5o630RE_8nmwCUOWmKcAyRZioAQWto458Nv6u6CjYcRo6tHZ4OV8YsZ7ArJZj789_5S4i8bDJWdvlU_KV8CSeyIosLx6AquqtTtdYDQrpi76vpY1ZNJPwLny0Ko_4HWa_EnMB1L9dsDlwOi0vEuYZBrvNoiOfT3eGmVu4eo6xJyVJ6_OQeN6fHGpwb3HsXNaXKPrv0wgtU9gS_tZJ6xfWG7uUD0NPeaXAmpU4JRobo5ks2BlBPceYmMbJJmEjHRVQ7hbagqwsnpeQ1ubBENUp9ouDK47vG9TphmEq0szh43QlRWTNqrhmidgz1m8RHYjJZpPl8qgmL-NTfktwfnoyVBPMlKRzHd5pBBNQclLta32IPj_DNUwmsfv0WfjfHQTAxVqoV8_zhYlybhe_wiCVIIyQKsktzKeoP86etb6lqDrELi5Q_2Ki49frglo_o1acmIJhhyGZiKHn9K9xuhdj8xm_-I7eZ2wvVvEPjEI6h__nj5e-ZznUBcAbvydTyEHQp1i9yMRpV14xx3pby0]--></g></svg>