<svg xmlns="http://www.w3.org/2000/svg" xmlns:xlink="http://www.w3.org/1999/xlink" contentStyleType="text/css" height="311px" preserveAspectRatio="none" style="width:1523px;height:311px;" version="1.1" viewBox="0 0 1523 311" width="1523px" zoomAndPan="magnify"><defs/><g><!--class nz.ac.wgtn.swen225.lc.app--><a href="nz/ac/wgtn/swen225/lc/app/package-summary.html" target="_top" title="nz/ac/wgtn/swen225/lc/app/package-summary.html" xlink:actuate="onRequest" xlink:href="nz/ac/wgtn/swen225/lc/app/package-summary.html" xlink:show="new" xlink:title="nz/ac/wgtn/swen225/lc/app/package-summary.html" xlink:type="simple"><g id="elem_nz.ac.wgtn.swen225.lc.app"><rect codeLine="31" fill="#F1F1F1" height="26.4883" id="nz.ac.wgtn.swen225.lc.app" rx="2.5" ry="2.5" style="stroke:#181818;stroke-width:0.5;" width="190.748" x="1170.5" y="74"/><text fill="#000000" font-family="sans-serif" font-size="14" lengthAdjust="spacing" textLength="184.748" x="1173.5" y="92.5352">nz.ac.wgtn.swen225.lc.app</text></g></a><!--class nz.ac.wgtn.swen225.lc.domain--><a href="nz/ac/wgtn/swen225/lc/domain/package-summary.html" target="_top" title="nz/ac/wgtn/swen225/lc/domain/package-summary.html" xlink:actuate="onRequest" xlink:href="nz/ac/wgtn/swen225/lc/domain/package-summary.html" xlink:show="new" xlink:title="nz/ac/wgtn/swen225/lc/domain/package-summary.html" xlink:type="simple"><g id="elem_nz.ac.wgtn.swen225.lc.domain"><rect codeLine="33" fill="#F1F1F1" height="26.4883" id="nz.ac.wgtn.swen225.lc.domain" rx="2.5" ry="2.5" style="stroke:#181818;stroke-width:0.5;" width="216.3418" x="353" y="198"/><text fill="#000000" font-family="sans-serif" font-size="14" lengthAdjust="spacing" textLength="210.3418" x="356" y="216.5352">nz.ac.wgtn.swen225.lc.domain</text></g></a><!--class nz.ac.wgtn.swen225.lc.app.Inputs--><g id="elem_nz.ac.wgtn.swen225.lc.app.Inputs"><rect fill="#F1F1F1" height="26.4883" id="nz.ac.wgtn.swen225.lc.app.Inputs" rx="2.5" ry="2.5" style="stroke:#181818;stroke-width:0.5;" width="237.7725" x="1216" y="198"/><text fill="#000000" font-family="sans-serif" font-size="14" lengthAdjust="spacing" textLength="231.7725" x="1219" y="216.5352">nz.ac.wgtn.swen225.lc.app.Inputs</text></g><!--class nz.ac.wgtn.swen225.lc.app.UI.Containers--><g id="elem_nz.ac.wgtn.swen225.lc.app.UI.Containers"><rect fill="#F1F1F1" height="26.4883" id="nz.ac.wgtn.swen225.lc.app.UI.Containers" rx="2.5" ry="2.5" style="stroke:#181818;stroke-width:0.5;" width="286.6836" x="582.5" y="136"/><text fill="#000000" font-family="sans-serif" font-size="14" lengthAdjust="spacing" textLength="280.6836" x="585.5" y="154.5352">nz.ac.wgtn.swen225.lc.app.UI.Containers</text></g><!--class nz.ac.wgtn.swen225.lc.recorder--><a href="nz/ac/wgtn/swen225/lc/recorder/package-summary.html" target="_top" title="nz/ac/wgtn/swen225/lc/recorder/package-summary.html" xlink:actuate="onRequest" xlink:href="nz/ac/wgtn/swen225/lc/recorder/package-summary.html" xlink:show="new" xlink:title="nz/ac/wgtn/swen225/lc/recorder/package-summary.html" xlink:type="simple"><g id="elem_nz.ac.wgtn.swen225.lc.recorder"><rect codeLine="35" fill="#F1F1F1" height="26.4883" id="nz.ac.wgtn.swen225.lc.recorder" rx="2.5" ry="2.5" style="stroke:#181818;stroke-width:0.5;" width="222.7607" x="1154.5" y="136"/><text fill="#000000" font-family="sans-serif" font-size="14" lengthAdjust="spacing" textLength="216.7607" x="1157.5" y="154.5352">nz.ac.wgtn.swen225.lc.recorder</text></g></a><!--class nz.ac.wgtn.swen225.lc.render--><a href="nz/ac/wgtn/swen225/lc/render/package-summary.html" target="_top" title="nz/ac/wgtn/swen225/lc/render/package-summary.html" xlink:actuate="onRequest" xlink:href="nz/ac/wgtn/swen225/lc/render/package-summary.html" xlink:show="new" xlink:title="nz/ac/wgtn/swen225/lc/render/package-summary.html" xlink:type="simple"><g id="elem_nz.ac.wgtn.swen225.lc.render"><rect codeLine="37" fill="#F1F1F1" height="26.4883" id="nz.ac.wgtn.swen225.lc.render" rx="2.5" ry="2.5" style="stroke:#181818;stroke-width:0.5;" width="209.9502" x="926" y="136"/><text fill="#000000" font-family="sans-serif" font-size="14" lengthAdjust="spacing" textLength="203.9502" x="929" y="154.5352">nz.ac.wgtn.swen225.lc.render</text></g></a><!--class nz.ac.wgtn.swen225.lc.domain.Interface--><g id="elem_nz.ac.wgtn.swen225.lc.domain.Interface"><rect fill="#F1F1F1" height="26.4883" id="nz.ac.wgtn.swen225.lc.domain.Interface" rx="2.5" ry="2.5" style="stroke:#181818;stroke-width:0.5;" width="280.1074" x="6" y="260"/><text fill="#000000" font-family="sans-serif" font-size="14" lengthAdjust="spacing" textLength="274.1074" x="9" y="278.5352">nz.ac.wgtn.swen225.lc.domain.Interface</text></g><!--class nz.ac.wgtn.swen225.lc.domain.Utilities--><g id="elem_nz.ac.wgtn.swen225.lc.domain.Utilities"><rect fill="#F1F1F1" height="26.4883" id="nz.ac.wgtn.swen225.lc.domain.Utilities" rx="2.5" ry="2.5" style="stroke:#181818;stroke-width:0.5;" width="272.0684" x="926" y="260"/><text fill="#000000" font-family="sans-serif" font-size="14" lengthAdjust="spacing" textLength="266.0684" x="929" y="278.5352">nz.ac.wgtn.swen225.lc.domain.Utilities</text></g><!--class nz.ac.wgtn.swen225.lc.domain.GameActor--><g id="elem_nz.ac.wgtn.swen225.lc.domain.GameActor"><rect fill="#F1F1F1" height="26.4883" id="nz.ac.wgtn.swen225.lc.domain.GameActor" rx="2.5" ry="2.5" style="stroke:#181818;stroke-width:0.5;" width="295.8848" x="612" y="260"/><text fill="#000000" font-family="sans-serif" font-size="14" lengthAdjust="spacing" textLength="289.8848" x="615" y="278.5352">nz.ac.wgtn.swen225.lc.domain.GameActor</text></g><!--class nz.ac.wgtn.swen225.lc.domain.GameItem--><g id="elem_nz.ac.wgtn.swen225.lc.domain.GameItem"><rect fill="#F1F1F1" height="26.4883" id="nz.ac.wgtn.swen225.lc.domain.GameItem" rx="2.5" ry="2.5" style="stroke:#181818;stroke-width:0.5;" width="289.6299" x="304" y="260"/><text fill="#000000" font-family="sans-serif" font-size="14" lengthAdjust="spacing" textLength="283.6299" x="307" y="278.5352">nz.ac.wgtn.swen225.lc.domain.GameItem</text></g><!--class nz.ac.wgtn.swen225.lc.persistency--><a href="nz/ac/wgtn/swen225/lc/persistency/package-summary.html" target="_top" title="nz/ac/wgtn/swen225/lc/persistency/package-summary.html" xlink:actuate="onRequest" xlink:href="nz/ac/wgtn/swen225/lc/persistency/package-summary.html" xlink:show="new" xlink:title="nz/ac/wgtn/swen225/lc/persistency/package-summary.html" xlink:type="simple"><g id="elem_nz.ac.wgtn.swen225.lc.persistency"><rect codeLine="39" fill="#F1F1F1" height="26.4883" id="nz.ac.wgtn.swen225.lc.persistency" rx="2.5" ry="2.5" style="stroke:#181818;stroke-width:0.5;" width="242.2637" x="389" y="74"/><text fill="#000000" font-family="sans-serif" font-size="14" lengthAdjust="spacing" textLength="236.2637" x="392" y="92.5352">nz.ac.wgtn.swen225.lc.persistency</text></g></a><!--class nz.ac.wgtn.swen225.lc.fuzz--><a href="nz/ac/wgtn/swen225/lc/fuzz/package-summary.html" target="_top" title="nz/ac/wgtn/swen225/lc/fuzz/package-summary.html" xlink:actuate="onRequest" xlink:href="nz/ac/wgtn/swen225/lc/fuzz/package-summary.html" xlink:show="new" xlink:title="nz/ac/wgtn/swen225/lc/fuzz/package-summary.html" xlink:type="simple"><g id="elem_nz.ac.wgtn.swen225.lc.fuzz"><rect codeLine="41" fill="#F1F1F1" height="26.4883" id="nz.ac.wgtn.swen225.lc.fuzz" rx="2.5" ry="2.5" style="stroke:#181818;stroke-width:0.5;" width="195.2803" x="1257.5" y="12"/><text fill="#000000" font-family="sans-serif" font-size="14" lengthAdjust="spacing" textLength="189.2803" x="1260.5" y="30.5352">nz.ac.wgtn.swen225.lc.fuzz</text></g></a><polygon fill="#181818" points="569.3605,203.3112,578.6234,206.6574,574.3477,202.9536,578.0514,198.6779,569.3605,203.3112" style="stroke:#181818;stroke-width:1.0;"/><path d="M1170.2119,89.659 C1098.442,93.6148 998.9239,104.9445 917,136 C897.5206,143.3842 897.5598,154.8312 878,162 C823.176,182.0933 679.5737,195.4104 575.3451,202.8821 " fill="none" style="stroke:#181818;stroke-width:1.0;"/><polygon fill="#181818" points="1354.1005,197.7755,1363.7456,195.7822,1358.164,194.8621,1359.0841,189.2806,1354.1005,197.7755" style="stroke:#181818;stroke-width:1.0;"/><path d="M1335.066,100.001 C1355.1656,107.0499 1374.9382,118.239 1387,136 C1401.9084,157.9526 1379.3473,179.6745 1358.9767,194.2795 " fill="none" style="stroke:#181818;stroke-width:1.0;"/><polygon fill="#181818" points="834.1329,135.9852,843.5196,138.9669,839.1023,135.4331,842.6362,131.0158,834.1329,135.9852" style="stroke:#181818;stroke-width:1.0;"/><path d="M1170.3916,98.6232 C1076.181,109.091 938.4215,124.3976 840.0962,135.3226 " fill="none" style="stroke:#181818;stroke-width:1.0;"/><polygon fill="#181818" points="1260.4541,135.8762,1263.0356,126.3716,1259.692,130.9346,1255.1291,127.591,1260.4541,135.8762" style="stroke:#181818;stroke-width:1.0;"/><path d="M1260.4514,100.1419 C1258.8486,110.5516 1257.935,119.5418 1259.5396,129.9463 " fill="none" style="stroke:#181818;stroke-width:1.0;"/><polygon fill="#181818" points="1078.1975,135.9496,1087.9073,137.5988,1083.0421,134.7127,1085.9283,129.8474,1078.1975,135.9496" style="stroke:#181818;stroke-width:1.0;"/><path d="M1218.7269,100.0697 C1177.8475,110.507 1124.8684,124.0336 1084.011,134.4653 " fill="none" style="stroke:#181818;stroke-width:1.0;"/><polygon fill="#181818" points="209.2648,259.9496,218.8543,262.1949,214.1765,259.014,217.3574,254.3362,209.2648,259.9496" style="stroke:#181818;stroke-width:1.0;"/><path d="M397.634,224.0697 C342.8381,234.507 269.925,248.3952 215.1588,258.8269 " fill="none" style="stroke:#181818;stroke-width:1.0;"/><polygon fill="#181818" points="941.5707,259.9771,933.0126,255.1028,936.5954,259.4804,932.2179,263.0633,941.5707,259.9771" style="stroke:#181818;stroke-width:1.0;"/><path d="M569.1409,222.7961 C673.9906,233.2636 826.7711,248.5163 935.6004,259.3811 " fill="none" style="stroke:#181818;stroke-width:1.0;"/><polygon fill="#181818" points="699.9487,259.9496,691.9116,254.257,695.0464,258.9658,690.3376,262.1007,699.9487,259.9496" style="stroke:#181818;stroke-width:1.0;"/><path d="M521.1474,224.0697 C573.16,234.507 642.0815,248.3374 694.066,258.7691 " fill="none" style="stroke:#181818;stroke-width:1.0;"/><polygon fill="#181818" points="451.4248,259.8762,457.1121,251.8354,452.4053,254.9733,449.2675,250.2665,451.4248,259.8762" style="stroke:#181818;stroke-width:1.0;"/><path d="M458.5716,224.1419 C456.4897,234.5516 454.6824,243.5882 452.6015,253.9927 " fill="none" style="stroke:#181818;stroke-width:1.0;"/><polygon fill="#181818" points="465.8577,197.9053,472.9238,191.0445,467.7212,193.2655,465.5002,188.0629,465.8577,197.9053" style="stroke:#181818;stroke-width:1.0;"/><path d="M505.1226,100.1439 C495.7302,123.5288 477.4707,168.9914 468.0939,192.3376 " fill="none" style="stroke:#181818;stroke-width:1.0;"/><polygon fill="#181818" points="169.971,259.8828,179.8076,259.3924,174.4333,257.6271,176.1986,252.2528,169.971,259.8828" style="stroke:#181818;stroke-width:1.0;"/><path d="M486.1169,100.0728 C420.1623,133.4124 241.3853,223.7833 175.3257,257.176 " fill="none" style="stroke:#181818;stroke-width:1.0;"/><polygon fill="#181818" points="979.5361,259.9256,971.2567,254.5916,974.5953,259.1582,970.0288,262.4968,979.5361,259.9256" style="stroke:#181818;stroke-width:1.0;"/><path d="M516.8222,100.0983 C526.8768,116.7614 547.293,146.4717 573,162 C640.6867,202.8861 852.8124,240.2411 973.6072,259.0047 " fill="none" style="stroke:#181818;stroke-width:1.0;"/><polygon fill="#181818" points="1154.2616,136.8224,1145.6571,132.0306,1149.2818,136.3735,1144.9389,139.9983,1154.2616,136.8224" style="stroke:#181818;stroke-width:1.0;"/><path d="M631.2111,96.3155 C759.0448,105.2837 966.3011,120.3871 1145,136 C1148.0493,136.2664 1145.1656,136.0025 1148.2859,136.2838 " fill="none" style="stroke:#181818;stroke-width:1.0;"/><polygon fill="#181818" points="1271.5486,100.1419,1268.9648,109.6458,1272.3095,105.0837,1276.8716,108.4284,1271.5486,100.1419" style="stroke:#181818;stroke-width:1.0;"/><path d="M1271.5459,135.8762 C1273.1505,125.4717 1274.0644,116.4817 1272.4617,106.072 " fill="none" style="stroke:#181818;stroke-width:1.0;"/><polygon fill="#181818" points="1321.0576,197.8762,1316.8909,188.9521,1317.2846,194.5953,1311.6414,194.989,1321.0576,197.8762" style="stroke:#181818;stroke-width:1.0;"/><path d="M1279.9632,162.1419 C1291.9344,172.5516 1304.5648,183.5346 1316.53,193.9391 " fill="none" style="stroke:#181818;stroke-width:1.0;"/><polygon fill="#181818" points="1058.9267,259.9053,1060.5871,250.1974,1057.6954,255.0593,1052.8335,252.1675,1058.9267,259.9053" style="stroke:#181818;stroke-width:1.0;"/><path d="M1034.0857,162.1439 C1040.0278,185.5288 1051.5169,230.7439 1057.4491,254.0901 " fill="none" style="stroke:#181818;stroke-width:1.0;"/><polygon fill="#181818" points="569.4742,198.5817,578.8435,201.6175,574.4467,198.0582,578.006,193.6615,569.4742,198.5817" style="stroke:#181818;stroke-width:1.0;"/><path d="M925.789,161.0748 C824.4609,171.741 677.8521,187.1735 575.4413,197.9536 " fill="none" style="stroke:#181818;stroke-width:1.0;"/><polygon fill="#181818" points="788.0318,135.9684,797.6288,138.1815,792.9403,135.0163,796.1055,130.3279,788.0318,135.9684" style="stroke:#181818;stroke-width:1.0;"/><path d="M1292.9676,38.0317 C1172.5576,61.3863 914.3316,111.4714 793.922,134.8259 " fill="none" style="stroke:#181818;stroke-width:1.0;"/><polygon fill="#181818" points="1283.9837,73.8762,1293.6822,72.1619,1288.1296,71.0812,1289.2103,65.5285,1283.9837,73.8762" style="stroke:#181818;stroke-width:1.0;"/><path d="M1336.9895,38.1419 C1321.5484,48.5516 1304.3921,60.1177 1288.9587,70.5222 " fill="none" style="stroke:#181818;stroke-width:1.0;"/><polygon fill="#181818" points="1363.3165,197.9441,1373.1379,197.2093,1367.7213,195.5782,1369.3524,190.1616,1363.3165,197.9441" style="stroke:#181818;stroke-width:1.0;"/><path d="M1365.7034,38.1013 C1385.8545,62.4311 1425.4627,118.6488 1403,162 C1394.6234,178.1662 1383.3054,187.2077 1368.6023,195.105 " fill="none" style="stroke:#181818;stroke-width:1.0;"/><polygon fill="#181818" points="1198.0141,264.5376,1207.2646,267.9182,1203.0026,264.1986,1206.7222,259.9367,1198.0141,264.5376" style="stroke:#181818;stroke-width:1.0;"/><path d="M1370.9674,38.0838 C1412.4798,70.8906 1516.9296,163.23 1463,224 C1445.315,243.9281 1313.249,256.7067 1204.0003,264.1308 " fill="none" style="stroke:#181818;stroke-width:1.0;"/><text fill="#888888" font-family="sans-serif" font-size="10" lengthAdjust="spacing" textLength="3.1641" x="724.918" y="289.668">&#160;</text><text fill="#888888" font-family="sans-serif" font-size="10" lengthAdjust="spacing" textLength="236.626" x="608.187" y="301.4453">UMLDoclet 2.2.1-SNAPSHOT, PlantUML 1.2024.7</text><!--SRC=[hPPHQzim4CVVzobkXT8L6fa6zZeeBMo1jWjaUUhwS9KlYOXqCj9v9IdzxfFZ1SAAOxVsa_7zJx__-NoI3G3mkGYuT0WMDxuKY8u46Jyb1UBQS8417JoXNY-3BpdNtle04f1ZaeYbpYG1HaSffcb6rI99QUoPTlhAv0JQ16qFxiaLie658Pl7_wEfYfLFuLsSjmgrUbuAg_XCF1v_LLOhB0eOZRurgBbtQFZ3ovEg9boK4diXvXDrxLbI9HG-JWgaVSWfz03myULrjrhRcLeY51Rf7G_0ceknHWp50LZVq-nTwJHo0x4cGku8gaXlqqGXrfi-8_WUJAVMlmlOfV_TW1tcSvzoVB_q1hJlsNeh3DETZgmZX4MvtGvqXBIZ-jNHsjaMnfk-xb1dC4sV5bmIMCFh6gyjnWWdZQMSmCC3RpFKMILc_yJCwYo9ML7pHh5q3iD6hSJPnqTusQ5VsmtgEfizQhstpNwUcuts6GDOSOiH3s5pS5OqUnqazJQi1gxPgL8xML1riCB2- -hoc-TtjpS-_QS8ZDLONOvczrVJsO-VlovWQf4boN3wfteApr_E_m80]--></g></svg>