<svg xmlns="http://www.w3.org/2000/svg" xmlns:xlink="http://www.w3.org/1999/xlink" contentStyleType="text/css" height="249px" preserveAspectRatio="none" style="width:1740px;height:249px;" version="1.1" viewBox="0 0 1740 249" width="1740px" zoomAndPan="magnify"><defs/><g><!--class nz.ac.wgtn.swen225.lc.app--><a href="nz/ac/wgtn/swen225/lc/app/package-summary.html" target="_top" title="nz/ac/wgtn/swen225/lc/app/package-summary.html" xlink:actuate="onRequest" xlink:href="nz/ac/wgtn/swen225/lc/app/package-summary.html" xlink:show="new" xlink:title="nz/ac/wgtn/swen225/lc/app/package-summary.html" xlink:type="simple"><g id="elem_nz.ac.wgtn.swen225.lc.app"><rect codeLine="27" fill="#F1F1F1" height="26.4883" id="nz.ac.wgtn.swen225.lc.app" rx="2.5" ry="2.5" style="stroke:#181818;stroke-width:0.5;" width="190.748" x="346.7642" y="12"/><text fill="#000000" font-family="sans-serif" font-size="14" lengthAdjust="spacing" textLength="184.748" x="349.7642" y="30.5352">nz.ac.wgtn.swen225.lc.app</text></g></a><!--class nz.ac.wgtn.swen225.lc.domain--><a href="nz/ac/wgtn/swen225/lc/domain/package-summary.html" target="_top" title="nz/ac/wgtn/swen225/lc/domain/package-summary.html" xlink:actuate="onRequest" xlink:href="nz/ac/wgtn/swen225/lc/domain/package-summary.html" xlink:show="new" xlink:title="nz/ac/wgtn/swen225/lc/domain/package-summary.html" xlink:type="simple"><g id="elem_nz.ac.wgtn.swen225.lc.domain"><rect codeLine="29" fill="#F1F1F1" height="26.4883" id="nz.ac.wgtn.swen225.lc.domain" rx="2.5" ry="2.5" style="stroke:#181818;stroke-width:0.5;" width="216.3418" x="872.2642" y="136"/><text fill="#000000" font-family="sans-serif" font-size="14" lengthAdjust="spacing" textLength="210.3418" x="875.2642" y="154.5352">nz.ac.wgtn.swen225.lc.domain</text></g></a><!--class nz.ac.wgtn.swen225.lc.app.Inputs--><g id="elem_nz.ac.wgtn.swen225.lc.app.Inputs"><rect fill="#F1F1F1" height="26.4883" id="nz.ac.wgtn.swen225.lc.app.Inputs" rx="2.5" ry="2.5" style="stroke:#181818;stroke-width:0.5;" width="237.7725" x="100.2642" y="136"/><text fill="#000000" font-family="sans-serif" font-size="14" lengthAdjust="spacing" textLength="231.7725" x="103.2642" y="154.5352">nz.ac.wgtn.swen225.lc.app.Inputs</text></g><!--class nz.ac.wgtn.swen225.lc.app.UI.Containers--><g id="elem_nz.ac.wgtn.swen225.lc.app.UI.Containers"><rect fill="#F1F1F1" height="26.4883" id="nz.ac.wgtn.swen225.lc.app.UI.Containers" rx="2.5" ry="2.5" style="stroke:#181818;stroke-width:0.5;" width="286.6836" x="25.7642" y="74"/><text fill="#000000" font-family="sans-serif" font-size="14" lengthAdjust="spacing" textLength="280.6836" x="28.7642" y="92.5352">nz.ac.wgtn.swen225.lc.app.UI.Containers</text></g><!--class nz.ac.wgtn.swen225.lc.recorder--><a href="nz/ac/wgtn/swen225/lc/recorder/package-summary.html" target="_top" title="nz/ac/wgtn/swen225/lc/recorder/package-summary.html" xlink:actuate="onRequest" xlink:href="nz/ac/wgtn/swen225/lc/recorder/package-summary.html" xlink:show="new" xlink:title="nz/ac/wgtn/swen225/lc/recorder/package-summary.html" xlink:type="simple"><g id="elem_nz.ac.wgtn.swen225.lc.recorder"><rect codeLine="31" fill="#F1F1F1" height="26.4883" id="nz.ac.wgtn.swen225.lc.recorder" rx="2.5" ry="2.5" style="stroke:#181818;stroke-width:0.5;" width="222.7607" x="330.7642" y="74"/><text fill="#000000" font-family="sans-serif" font-size="14" lengthAdjust="spacing" textLength="216.7607" x="333.7642" y="92.5352">nz.ac.wgtn.swen225.lc.recorder</text></g></a><!--class nz.ac.wgtn.swen225.lc.render--><a href="nz/ac/wgtn/swen225/lc/render/package-summary.html" target="_top" title="nz/ac/wgtn/swen225/lc/render/package-summary.html" xlink:actuate="onRequest" xlink:href="nz/ac/wgtn/swen225/lc/render/package-summary.html" xlink:show="new" xlink:title="nz/ac/wgtn/swen225/lc/render/package-summary.html" xlink:type="simple"><g id="elem_nz.ac.wgtn.swen225.lc.render"><rect codeLine="33" fill="#F1F1F1" height="26.4883" id="nz.ac.wgtn.swen225.lc.render" rx="2.5" ry="2.5" style="stroke:#181818;stroke-width:0.5;" width="209.9502" x="572.2642" y="74"/><text fill="#000000" font-family="sans-serif" font-size="14" lengthAdjust="spacing" textLength="203.9502" x="575.2642" y="92.5352">nz.ac.wgtn.swen225.lc.render</text></g></a><!--class nz.ac.wgtn.swen225.lc.domain.Interface--><g id="elem_nz.ac.wgtn.swen225.lc.domain.Interface"><rect fill="#F1F1F1" height="26.4883" id="nz.ac.wgtn.swen225.lc.domain.Interface" rx="2.5" ry="2.5" style="stroke:#181818;stroke-width:0.5;" width="280.1074" x="1453.2642" y="198"/><text fill="#000000" font-family="sans-serif" font-size="14" lengthAdjust="spacing" textLength="274.1074" x="1456.2642" y="216.5352">nz.ac.wgtn.swen225.lc.domain.Interface</text></g><!--class nz.ac.wgtn.swen225.lc.domain.Utilities--><g id="elem_nz.ac.wgtn.swen225.lc.domain.Utilities"><rect fill="#F1F1F1" height="26.4883" id="nz.ac.wgtn.swen225.lc.domain.Utilities" rx="2.5" ry="2.5" style="stroke:#181818;stroke-width:0.5;" width="272.0684" x="541.2642" y="198"/><text fill="#000000" font-family="sans-serif" font-size="14" lengthAdjust="spacing" textLength="266.0684" x="544.2642" y="216.5352">nz.ac.wgtn.swen225.lc.domain.Utilities</text></g><!--class nz.ac.wgtn.swen225.lc.domain.GameActor--><g id="elem_nz.ac.wgtn.swen225.lc.domain.GameActor"><rect fill="#F1F1F1" height="26.4883" id="nz.ac.wgtn.swen225.lc.domain.GameActor" rx="2.5" ry="2.5" style="stroke:#181818;stroke-width:0.5;" width="295.8848" x="1139.2642" y="198"/><text fill="#000000" font-family="sans-serif" font-size="14" lengthAdjust="spacing" textLength="289.8848" x="1142.2642" y="216.5352">nz.ac.wgtn.swen225.lc.domain.GameActor</text></g><!--class nz.ac.wgtn.swen225.lc.domain.GameItem--><g id="elem_nz.ac.wgtn.swen225.lc.domain.GameItem"><rect fill="#F1F1F1" height="26.4883" id="nz.ac.wgtn.swen225.lc.domain.GameItem" rx="2.5" ry="2.5" style="stroke:#181818;stroke-width:0.5;" width="289.6299" x="831.2642" y="198"/><text fill="#000000" font-family="sans-serif" font-size="14" lengthAdjust="spacing" textLength="283.6299" x="834.2642" y="216.5352">nz.ac.wgtn.swen225.lc.domain.GameItem</text></g><!--class nz.ac.wgtn.swen225.lc.persistency--><a href="nz/ac/wgtn/swen225/lc/persistency/package-summary.html" target="_top" title="nz/ac/wgtn/swen225/lc/persistency/package-summary.html" xlink:actuate="onRequest" xlink:href="nz/ac/wgtn/swen225/lc/persistency/package-summary.html" xlink:show="new" xlink:title="nz/ac/wgtn/swen225/lc/persistency/package-summary.html" xlink:type="simple"><g id="elem_nz.ac.wgtn.swen225.lc.persistency"><rect codeLine="35" fill="#F1F1F1" height="26.4883" id="nz.ac.wgtn.swen225.lc.persistency" rx="2.5" ry="2.5" style="stroke:#181818;stroke-width:0.5;" width="242.2637" x="769.2642" y="12"/><text fill="#000000" font-family="sans-serif" font-size="14" lengthAdjust="spacing" textLength="236.2637" x="772.2642" y="30.5352">nz.ac.wgtn.swen225.lc.persistency</text></g></a><polygon fill="#181818" points="955.2231,135.9823,948.7513,128.5583,950.69,133.8726,945.3757,135.8113,955.2231,135.9823" style="stroke:#181818;stroke-width:1.0;"/><path d="M537.8789,33.0136 C608.6895,39.682 707.075,52.06 791.2642,74 C851.9605,89.8176 914.1851,116.8832 949.7834,133.4506 " fill="none" style="stroke:#181818;stroke-width:1.0;"/><polygon fill="#181818" points="99.9909,138.8258,91.688,133.5285,95.0468,138.0802,90.495,141.439,99.9909,138.8258" style="stroke:#181818;stroke-width:1.0;"/><path d="M346.5495,30.1492 C227.7016,36.302 37.8839,49.8074 16.2642,74 C-16.8551,111.0607 32.7574,128.6867 94.058,137.9311 " fill="none" style="stroke:#181818;stroke-width:1.0;"/><polygon fill="#181818" points="224.0937,73.9496,233.7425,75.9244,228.9771,72.8763,232.0253,68.1109,224.0937,73.9496" style="stroke:#181818;stroke-width:1.0;"/><path d="M387.347,38.0697 C339.8573,48.507 277.4179,62.23 229.9538,72.6616 " fill="none" style="stroke:#181818;stroke-width:1.0;"/><polygon fill="#181818" points="436.7184,73.8762,439.2998,64.3716,435.9563,68.9346,431.3933,65.591,436.7184,73.8762" style="stroke:#181818;stroke-width:1.0;"/><path d="M436.7156,38.1419 C435.1128,48.5516 434.1993,57.5418 435.8038,67.9463 " fill="none" style="stroke:#181818;stroke-width:1.0;"/><polygon fill="#181818" points="630.0667,73.9496,622.336,67.8474,625.2221,72.7127,620.3569,75.5988,630.0667,73.9496" style="stroke:#181818;stroke-width:1.0;"/><path d="M489.5373,38.0697 C530.4167,48.507 583.3958,62.0336 624.2532,72.4653 " fill="none" style="stroke:#181818;stroke-width:1.0;"/><polygon fill="#181818" points="1470.6383,197.9975,1462.0707,193.1398,1465.6621,197.5104,1461.2914,201.1017,1470.6383,197.9975" style="stroke:#181818;stroke-width:1.0;"/><path d="M1088.4452,160.5887 C1195.4254,171.0598 1352.9237,186.4756 1464.6668,197.413 " fill="none" style="stroke:#181818;stroke-width:1.0;"/><polygon fill="#181818" points="738.1189,197.9496,747.7245,200.1251,743.0237,196.9783,746.1705,192.2775,738.1189,197.9496" style="stroke:#181818;stroke-width:1.0;"/><path d="M919.3121,162.0697 C866.6037,172.507 796.6845,186.3524 744.0046,196.7841 " fill="none" style="stroke:#181818;stroke-width:1.0;"/><polygon fill="#181818" points="1225.6062,197.9496,1217.5405,192.2975,1220.699,196.9905,1216.006,200.149,1225.6062,197.9496" style="stroke:#181818;stroke-width:1.0;"/><path d="M1042.0209,162.0697 C1095.4252,172.507 1166.3422,186.367 1219.7176,196.7987 " fill="none" style="stroke:#181818;stroke-width:1.0;"/><polygon fill="#181818" points="977.0725,197.8762,981.6623,189.1622,977.4051,192.8872,973.68,188.63,977.0725,197.8762" style="stroke:#181818;stroke-width:1.0;"/><path d="M979.4548,162.1419 C978.7608,172.5516 978.1652,181.4849 977.4716,191.8895 " fill="none" style="stroke:#181818;stroke-width:1.0;"/><polygon fill="#181818" points="971.3419,135.9053,969.2179,126.2881,968.3736,131.8816,962.7801,131.0373,971.3419,135.9053" style="stroke:#181818;stroke-width:1.0;"/><path d="M899.2228,38.1439 C916.474,61.5288 950.5574,107.7307 967.78,131.0769 " fill="none" style="stroke:#181818;stroke-width:1.0;"/><polygon fill="#181818" points="1547.3765,197.9896,1539.6826,191.8411,1542.5395,196.7235,1537.657,199.5804,1547.3765,197.9896" style="stroke:#181818;stroke-width:1.0;"/><path d="M936.1188,38.0018 C1063.3996,71.3157 1414.2516,163.1461 1541.5721,196.4703 " fill="none" style="stroke:#181818;stroke-width:1.0;"/><polygon fill="#181818" points="691.2912,197.8828,700.7167,195.0264,695.0749,194.6142,695.487,188.9724,691.2912,197.8828" style="stroke:#181818;stroke-width:1.0;"/><path d="M876.2887,38.0728 C837.6944,71.4124 734.4874,160.5678 695.8317,193.9605 " fill="none" style="stroke:#181818;stroke-width:1.0;"/><polygon fill="#181818" points="531.9664,73.9863,541.4177,76.7562,536.9221,73.3226,540.3557,68.827,531.9664,73.9863" style="stroke:#181818;stroke-width:1.0;"/><path d="M800.4127,38.0337 C722.3784,48.4847 615.9036,62.7447 537.9133,73.1899 " fill="none" style="stroke:#181818;stroke-width:1.0;"/><polygon fill="#181818" points="447.8129,38.1419,445.229,47.6458,448.5737,43.0837,453.1358,46.4284,447.8129,38.1419" style="stroke:#181818;stroke-width:1.0;"/><path d="M447.8101,73.8762 C449.4147,63.4717 450.3286,54.4817 448.7259,44.072 " fill="none" style="stroke:#181818;stroke-width:1.0;"/><polygon fill="#181818" points="264.0517,135.9496,273.7818,137.4738,268.8799,134.6505,271.7033,129.7486,264.0517,135.9496" style="stroke:#181818;stroke-width:1.0;"/><path d="M397.4051,100.0697 C358.6131,110.507 308.6166,123.959 269.8456,134.3907 " fill="none" style="stroke:#181818;stroke-width:1.0;"/><polygon fill="#181818" points="677.2642,197.9053,681.2642,188.9053,677.2642,192.9053,673.2642,188.9053,677.2642,197.9053" style="stroke:#181818;stroke-width:1.0;"/><path d="M677.2642,100.1439 C677.2642,123.5288 677.2642,168.5591 677.2642,191.9053 " fill="none" style="stroke:#181818;stroke-width:1.0;"/><polygon fill="#181818" points="919.4095,135.9496,911.358,130.2775,914.5048,134.9783,909.804,138.1251,919.4095,135.9496" style="stroke:#181818;stroke-width:1.0;"/><path d="M738.2163,100.0697 C790.9247,110.507 860.8439,124.3524 913.5238,134.7841 " fill="none" style="stroke:#181818;stroke-width:1.0;"/><text fill="#888888" font-family="sans-serif" font-size="10" lengthAdjust="spacing" textLength="3.1641" x="854.668" y="227.668">&#160;</text><text fill="#888888" font-family="sans-serif" font-size="10" lengthAdjust="spacing" textLength="236.626" x="737.937" y="239.4453">UMLDoclet 2.2.1-SNAPSHOT, PlantUML 1.2024.7</text><!--SRC=[hPNVQzim4CVV-rTS2sCTB38BzBLGDjW2-n78yjJsuIfV4X7fPAJBIZhsl-ySDn0AJjpQJyRtFNs-ykbE1W0uhn8k0uB7RTm8v422Z6UgG5uxhZ1XW0UqwsMA6ovjz3619EIi4h4qcIJ064XZbcPKBn9DuyYqqrUk9B0kMN_mJg6IBImS-JA_ZEekLb73kpW_6RJcSIbiyYFnU7nbl3LOLJ0QNRUePGpe-CtBLJKJhZQIUo7c4_CvikXEABsTbCZ6L5Bg0U3ZovjgdIodbaGeBVIC1s3DnNadZl80hA_QUpTMMsuWraGe745LUfek2x7Tzcd1rs0wbVvLm2xrxmRiq9_xbEFpqXjmUcQRKHYcEXrPpINs7gPwYUAIm3jUDrZhCMUuQFsS2xYzvQS2RL6BnRDOU5keM5GDRvGt8M3QcfK4VtyFVtVeVwSDcjsrUpHwRvlzoRKRxJC6iE8JHZo4pS5Kj7iT97Kof7g-OH5Z_RZZ-O_lNwB-BWN6Pcm-ZMO_RwQpRxz-VuIfHnQLuTsVsYBovOV_]--></g></svg>